<?xml version="1.0" encoding="UTF-8" standalone="yes"?><svg xmlns="http://www.w3.org/2000/svg" xmlns:xlink="http://www.w3.org/1999/xlink" height="531px" style="width:321px;height:531px;" version="1.1" viewBox="0 0 321 531" width="321px"><defs><filter height="300%" id="f1" width="300%" x="-1" y="-1"><feGaussianBlur result="blurOut" stdDeviation="2.0"/><feColorMatrix in="blurOut" result="blurOut2" type="matrix" values="0 0 0 0 0 0 0 0 0 0 0 0 0 0 0 0 0 0 .4 0"/><feOffset dx="4.0" dy="4.0" in="blurOut2" result="blurOut3"/><feBlend in="SourceGraphic" in2="blurOut3" mode="normal"/></filter></defs><g><polygon fill="#FFFFFF" filter="url(#f1)" points="22,24,96,24,103,46.4883,179,46.4883,179,524,22,524,22,24" style="stroke: #000000; stroke-width: 2.0;"/><line style="stroke: #000000; stroke-width: 2.0;" x1="22" x2="103" y1="46.4883" y2="46.4883"/><text fill="#000000" font-family="sans-serif" font-size="14" font-weight="bold" lengthAdjust="spacingAndGlyphs" textLength="68" x="26" y="39.5352">Marathon</text><polygon fill="#FFFFFF" filter="url(#f1)" points="203,286.5,255,286.5,262,308.9883,283,308.9883,283,504.5,203,504.5,203,286.5" style="stroke: #000000; stroke-width: 2.0;"/><line style="stroke: #000000; stroke-width: 2.0;" x1="203" x2="262" y1="308.9883" y2="308.9883"/><text fill="#000000" font-family="sans-serif" font-size="14" font-weight="bold" lengthAdjust="spacingAndGlyphs" textLength="46" x="207" y="302.0352">Mesos</text><rect fill="#FEFECE" filter="url(#f1)" height="49.6875" style="stroke: #A80036; stroke-width: 1.5;" width="81" x="58.5" y="59"/><text fill="#000000" font-family="sans-serif" font-size="12" lengthAdjust="spacingAndGlyphs" textLength="49" x="74.5" y="72.6016">RunSpec</text><line style="stroke: #A80036; stroke-width: 1.5;" x1="59.5" x2="138.5" y1="77.1328" y2="77.1328"/><text fill="#000000" font-family="sans-serif" font-size="10" lengthAdjust="spacingAndGlyphs" textLength="43" x="64.5" y="90.8008">id: String</text><text fill="#000000" font-family="sans-serif" font-size="10" lengthAdjust="spacingAndGlyphs" textLength="69" x="64.5" y="102.5781">version: String</text><rect fill="#FEFECE" filter="url(#f1)" height="73.2422" style="stroke: #A80036; stroke-width: 1.5;" width="115" x="42.5" y="302"/><text fill="#000000" font-family="sans-serif" font-size="12" lengthAdjust="spacingAndGlyphs" textLength="101" x="49.5" y="315.6016">DeploymentPolicy</text><line style="stroke: #A80036; stroke-width: 1.5;" x1="43.5" x2="156.5" y1="320.1328" y2="320.1328"/><text fill="#000000" font-family="sans-serif" font-size="10" lengthAdjust="spacingAndGlyphs" textLength="43" x="48.5" y="333.8008">id: String</text><text fill="#000000" font-family="sans-serif" font-size="10" lengthAdjust="spacingAndGlyphs" textLength="51" x="48.5" y="345.5781">placement</text><text fill="#000000" font-family="sans-serif" font-size="10" lengthAdjust="spacingAndGlyphs" textLength="41" x="48.5" y="357.3555">recovery</text><text fill="#000000" font-family="sans-serif" font-size="10" lengthAdjust="spacingAndGlyphs" textLength="43" x="48.5" y="369.1328">schedule</text><rect fill="#FEFECE" filter="url(#f1)" height="73.2422" style="stroke: #A80036; stroke-width: 1.5;" width="83" x="58.5" y="435"/><text fill="#000000" font-family="sans-serif" font-size="12" lengthAdjust="spacingAndGlyphs" textLength="69" x="65.5" y="448.6016">Deployment</text><line style="stroke: #A80036; stroke-width: 1.5;" x1="59.5" x2="140.5" y1="453.1328" y2="453.1328"/><text fill="#000000" font-family="sans-serif" font-size="10" lengthAdjust="spacingAndGlyphs" textLength="68" x="64.5" y="466.8008">upgradePolicy</text><text fill="#000000" font-family="sans-serif" font-size="10" lengthAdjust="spacingAndGlyphs" textLength="46" x="64.5" y="478.5781">instances</text><text fill="#000000" font-family="sans-serif" font-size="10" lengthAdjust="spacingAndGlyphs" textLength="55" x="64.5" y="490.3555">appVersion</text><text fill="#000000" font-family="sans-serif" font-size="10" lengthAdjust="spacingAndGlyphs" textLength="9" x="64.5" y="502.1328">...</text><rect fill="#FEFECE" filter="url(#f1)" height="73.2422" style="stroke: #A80036; stroke-width: 1.5;" width="87" x="75.5" y="169"/><text fill="#000000" font-family="sans-serif" font-size="12" lengthAdjust="spacingAndGlyphs" textLength="47" x="95.5" y="182.6016">Instance</text><line style="stroke: #A80036; stroke-width: 1.5;" x1="76.5" x2="161.5" y1="187.1328" y2="187.1328"/><text fill="#000000" font-family="sans-serif" font-size="10" lengthAdjust="spacingAndGlyphs" textLength="21" x="81.5" y="200.8008">goal</text><text fill="#000000" font-family="sans-serif" font-size="10" lengthAdjust="spacingAndGlyphs" textLength="37" x="81.5" y="212.5781">agentId</text><text fill="#000000" font-family="sans-serif" font-size="10" lengthAdjust="spacingAndGlyphs" textLength="30" x="81.5" y="224.3555">taskId</text><text fill="#000000" font-family="sans-serif" font-size="10" lengthAdjust="spacingAndGlyphs" textLength="75" x="81.5" y="236.1328">runSpecVersion</text><rect fill="#FEFECE" filter="url(#f1)" height="34.1328" style="stroke: #A80036; stroke-width: 1.5;" width="47" x="219.5" y="321.5"/><text fill="#000000" font-family="sans-serif" font-size="12" lengthAdjust="spacingAndGlyphs" textLength="33" x="226.5" y="335.1016">Agent</text><line style="stroke: #A80036; stroke-width: 1.5;" x1="220.5" x2="265.5" y1="339.6328" y2="339.6328"/><rect fill="#FEFECE" filter="url(#f1)" height="34.1328" style="stroke: #A80036; stroke-width: 1.5;" width="42" x="223" y="454.5"/><text fill="#000000" font-family="sans-serif" font-size="12" lengthAdjust="spacingAndGlyphs" textLength="28" x="230" y="468.1016">Task</text><line style="stroke: #A80036; stroke-width: 1.5;" x1="224" x2="264" y1="472.6328" y2="472.6328"/><path d="M103.144,109.1749 C105.9815,126.4129 109.7903,149.5513 112.9637,168.8297 " fill="none" style="stroke: #A80036; stroke-width: 1.0;"/><text fill="#000000" font-family="sans-serif" font-size="13" lengthAdjust="spacingAndGlyphs" textLength="8" x="95.1773" y="129.3714">1</text><text fill="#000000" font-family="sans-serif" font-size="13" lengthAdjust="spacingAndGlyphs" textLength="6" x="105.2976" y="158.2605">*</text><path d="M83.0633,109.2993 C73.7323,125.6444 62.8556,147.7572 58,169 C50.7704,200.6287 51.3873,210.2366 58,242 C62.2826,262.5712 71.193,284.1339 79.7093,301.6461 " fill="none" style="stroke: #A80036; stroke-width: 1.0;"/><text fill="#000000" font-family="sans-serif" font-size="13" lengthAdjust="spacingAndGlyphs" textLength="8" x="70.7021" y="129.1107">1</text><text fill="#000000" font-family="sans-serif" font-size="13" lengthAdjust="spacingAndGlyphs" textLength="6" x="69.5606" y="291.32">*</text><path d="M100,375.1949 C100,393.8021 100,416.3346 100,434.9248 " fill="none" style="stroke: #A80036; stroke-width: 1.0;"/><text fill="#000000" font-family="sans-serif" font-size="13" lengthAdjust="spacingAndGlyphs" textLength="6" x="93.4469" y="395.918">*</text><text fill="#000000" font-family="sans-serif" font-size="13" lengthAdjust="spacingAndGlyphs" textLength="8" x="91.2625" y="424.3731">1</text><path d="M243.1287,355.6151 C243.3207,381.1529 243.6801,428.9511 243.8718,454.4505 " fill="none" style="stroke: #A80036; stroke-width: 1.0;"/><text fill="#000000" font-family="sans-serif" font-size="13" lengthAdjust="spacingAndGlyphs" textLength="8" x="233.8947" y="376.0578">1</text><text fill="#000000" font-family="sans-serif" font-size="13" lengthAdjust="spacingAndGlyphs" textLength="6" x="236.7965" y="443.6105">*</text><path d="M162.6565,211.4686 C201.8994,219.3993 257.3378,237.549 284,278.5 C320.7811,334.9929 277.2667,418.8301 255.2556,454.4732 " fill="none" style="stroke: #A80036; stroke-width: 1.0;"/><text fill="#000000" font-family="sans-serif" font-size="13" lengthAdjust="spacingAndGlyphs" textLength="8" x="170.5496" y="208.789">1</text><text fill="#000000" font-family="sans-serif" font-size="13" lengthAdjust="spacingAndGlyphs" textLength="6" x="252.0935" y="443.641">*</text><path d="M153.2118,242.1949 C177.2983,268.0296 208.4398,301.4314 227.0035,321.3424 " fill="none" style="stroke: #A80036; stroke-width: 1.0;"/><text fill="#000000" font-family="sans-serif" font-size="13" lengthAdjust="spacingAndGlyphs" textLength="8" x="150.7821" y="262.918">1</text><text fill="#000000" font-family="sans-serif" font-size="13" lengthAdjust="spacingAndGlyphs" textLength="24" x="193.7297" y="310.7724">0..1</text><path d="M113.7579,242.1949 C111.0997,260.8021 107.8808,283.3346 105.225,301.9248 " fill="none" style="stroke: #A80036; stroke-width: 1.0;"/><text fill="#000000" font-family="sans-serif" font-size="13" lengthAdjust="spacingAndGlyphs" textLength="8" x="104.0539" y="262.918">1</text><text fill="#000000" font-family="sans-serif" font-size="13" lengthAdjust="spacingAndGlyphs" textLength="24" x="79.9759" y="291.3731">0..1</text></g></svg>