<?xml version="1.0" encoding="UTF-8" standalone="yes"?><svg xmlns="http://www.w3.org/2000/svg" xmlns:xlink="http://www.w3.org/1999/xlink" height="375.6432px" style="width:590px;height:375px;" version="1.1" viewBox="0 0 590 375" width="590.7376px"><defs><filter height="300%" id="f1" width="300%" x="-1" y="-1"><feGaussianBlur result="blurOut" stdDeviation="2.058319039451115"/><feColorMatrix in="blurOut" result="blurOut2" type="matrix" values="0 0 0 0 0 0 0 0 0 0 0 0 0 0 0 0 0 0 .4 0"/><feOffset dx="4.11663807890223" dy="4.11663807890223" in="blurOut2" result="blurOut3"/><feBlend in="SourceGraphic" in2="blurOut3" mode="normal"/></filter></defs><g><rect fill="#FEFECE" filter="url(#f1)" height="120.4117" rx="12.8645" ry="12.8645" style="stroke: #A80036; stroke-width: 1.543739279588336;" width="180.1029" x="335.506" y="248.0274"/><rect fill="#FFFFFF" height="86.976" rx="12.8645" ry="12.8645" style="stroke: #FFFFFF; stroke-width: 1.0291595197255574;" width="173.928" x="338.5935" y="278.3756"/><line style="stroke: #A80036; stroke-width: 1.543739279588336;" x1="335.506" x2="515.6089" y1="275.2881" y2="275.2881"/><text fill="#000000" font-family="sans-serif" font-size="14.4082" lengthAdjust="spacingAndGlyphs" textLength="104.9743" x="373.0703" y="266.0739">SchedulerLoop</text><rect fill="#FEFECE" filter="url(#f1)" height="51.458" rx="12.8645" ry="12.8645" style="stroke: #A80036; stroke-width: 1.543739279588336;" width="110.1201" x="360.7204" y="292.2813"/><line style="stroke: #A80036; stroke-width: 1.543739279588336;" x1="360.7204" x2="470.8405" y1="319.542" y2="319.542"/><text fill="#000000" font-family="sans-serif" font-size="14.4082" lengthAdjust="spacingAndGlyphs" textLength="89.5369" x="371.012" y="311.3569">Orchestrator</text><ellipse cx="16.4666" cy="33.9623" fill="#000000" filter="url(#f1)" rx="10.2916" ry="10.2916" style="stroke: none; stroke-width: 1.0291595197255574;"/><rect fill="#FEFECE" filter="url(#f1)" height="51.458" rx="12.8645" ry="12.8645" style="stroke: #A80036; stroke-width: 1.543739279588336;" width="61.7496" x="98.7993" y="8.2333"/><line style="stroke: #A80036; stroke-width: 1.543739279588336;" x1="98.7993" x2="160.5489" y1="35.4939" y2="35.4939"/><text fill="#000000" font-family="sans-serif" font-size="14.4082" lengthAdjust="spacingAndGlyphs" textLength="41.1664" x="109.0909" y="27.3089">Client</text><rect fill="#FEFECE" filter="url(#f1)" height="52.0972" rx="12.8645" ry="12.8645" style="stroke: #A80036; stroke-width: 1.543739279588336;" width="159.5197" x="49.9142" y="122.47"/><line style="stroke: #A80036; stroke-width: 1.543739279588336;" x1="49.9142" x2="209.434" y1="149.7306" y2="149.7306"/><text fill="#000000" font-family="sans-serif" font-size="14.4082" lengthAdjust="spacingAndGlyphs" textLength="22.6415" x="118.3533" y="141.5456">API</text><text fill="#000000" font-family="sans-serif" font-size="12.3499" lengthAdjust="spacingAndGlyphs" textLength="138.9365" x="55.06" y="166.8163">Accepts HTTP requests</text><rect fill="#FEFECE" filter="url(#f1)" height="51.458" rx="12.8645" ry="12.8645" style="stroke: #A80036; stroke-width: 1.543739279588336;" width="112.1784" x="281.4751" y="122.9846"/><line style="stroke: #A80036; stroke-width: 1.543739279588336;" x1="281.4751" x2="393.6535" y1="150.2452" y2="150.2452"/><text fill="#000000" font-family="sans-serif" font-size="14.4082" lengthAdjust="spacingAndGlyphs" textLength="91.5952" x="291.7667" y="142.0602">StateUpdater</text><rect fill="#FEFECE" filter="url(#f1)" height="51.458" rx="12.8645" ry="12.8645" style="stroke: #A80036; stroke-width: 1.543739279588336;" width="75.1286" x="200.1715" y="292.2813"/><line style="stroke: #A80036; stroke-width: 1.543739279588336;" x1="200.1715" x2="275.3002" y1="319.542" y2="319.542"/><text fill="#000000" font-family="sans-serif" font-size="14.4082" lengthAdjust="spacingAndGlyphs" textLength="54.5455" x="210.4631" y="311.3569">Storage</text><rect fill="#FEFECE" filter="url(#f1)" height="51.458" rx="12.8645" ry="12.8645" style="stroke: #A80036; stroke-width: 1.543739279588336;" width="107.0326" x="474.4425" y="122.9846"/><line style="stroke: #A80036; stroke-width: 1.543739279588336;" x1="474.4425" x2="581.4751" y1="150.2452" y2="150.2452"/><text fill="#000000" font-family="sans-serif" font-size="14.4082" lengthAdjust="spacingAndGlyphs" textLength="86.4494" x="484.7341" y="142.0602">MesosDriver</text><path d="M27.0798,33.9623 C49.0934,33.9623 71.1069,33.9623 93.1205,33.9623 " fill="none" style="stroke: #A80036; stroke-width: 1.0291595197255574;"/><polygon fill="#A80036" points="98.4149,33.9623,89.1525,29.8456,93.2691,33.9623,89.1525,38.0789,98.4149,33.9623" style="stroke: #A80036; stroke-width: 1.0291595197255574;"/><path d="M118.5147,59.7147 C116.1731,76.602 115.9271,98.8047 117.7766,116.8089 " fill="none" style="stroke: #A80036; stroke-width: 1.0291595197255574;"/><polygon fill="#A80036" points="118.4179,122.2511,121.422,112.5704,117.8155,117.1407,113.2453,113.5342,118.4179,122.2511" style="stroke: #A80036; stroke-width: 1.0291595197255574;"/><path d="M141.5924,122.2511 C144.0099,105.2173 144.2084,83.0009 142.1882,65.1157 " fill="none" style="stroke: #A80036; stroke-width: 1.0291595197255574;"/><polygon fill="#A80036" points="141.49,59.7147,138.595,69.4286,142.1498,64.818,146.7603,68.3728,141.49,59.7147" style="stroke: #A80036; stroke-width: 1.0291595197255574;"/><path d="M209.6632,130.0763 C231.7105,128.152 253.758,128.8842 275.8054,132.2729 " fill="none" style="stroke: #A80036; stroke-width: 1.0291595197255574;"/><polygon fill="#A80036" points="281.1079,133.1391,272.6305,127.5827,276.0295,132.3093,271.3029,135.7082,281.1079,133.1391" style="stroke: #A80036; stroke-width: 1.0291595197255574;"/><path d="M281.1079,164.288 C259.0605,168.1026 237.0131,169.2607 214.9657,167.7624 " fill="none" style="stroke: #A80036; stroke-width: 1.0291595197255574;"/><polygon fill="#A80036" points="209.6632,167.3508,218.5792,172.172,214.7935,167.7491,219.2164,163.9634,209.6632,167.3508" style="stroke: #A80036; stroke-width: 1.0291595197255574;"/><path d="M281.2787,156.4463 C251.0537,163.781 216.2622,178.0577 197.5986,205.8319 C180.7645,230.8836 196.1612,263.8226 212.5154,287.5183 " fill="none" style="stroke: #A80036; stroke-width: 1.0291595197255574;"/><polygon fill="#A80036" points="215.5727,291.8313,213.5746,281.8941,212.5968,287.6332,206.8577,286.6555,215.5727,291.8313" style="stroke: #A80036; stroke-width: 1.0291595197255574;"/><text fill="#000000" font-family="sans-serif" font-size="13.3791" lengthAdjust="spacingAndGlyphs" textLength="72.0412" x="198.6278" y="219.7959">Put version</text><path d="M252.969,292.1768 C270.8375,261.8739 300.4313,211.6865 319.4572,179.4211 " fill="none" style="stroke: #A80036; stroke-width: 1.0291595197255574;"/><polygon fill="#A80036" points="322.1849,174.7951,313.9341,180.6827,319.5711,179.2277,321.0262,184.8647,322.1849,174.7951" style="stroke: #A80036; stroke-width: 1.0291595197255574;"/><text fill="#000000" font-family="sans-serif" font-size="13.3791" lengthAdjust="spacingAndGlyphs" textLength="76.1578" x="303.6021" y="219.7959">Ack version</text><path d="M394.0197,166.6715 C426.1662,179.7273 464.5499,200.6078 487.8216,231.5609 C490.1839,234.703 492.2695,238.0789 494.1101,241.6106 C495.0303,243.3765 495.8893,245.1813 496.691,247.0154 C496.7912,247.2446 496.8906,247.4743 496.989,247.7045 " fill="none" style="stroke: #A80036; stroke-width: 1.0291595197255574;"/><polygon fill="#A80036" points="496.989,247.7045,497.1318,237.5694,494.9655,242.9732,489.5617,240.807,496.989,247.7045" style="stroke: #A80036; stroke-width: 1.0291595197255574;"/><path d="M515.6304,283.1508 C519.4773,265.3577 523.6861,243.3048 525.9005,223.3276 C527.476,209.1145 528.0756,193.2905 528.248,179.8855 " fill="none" style="stroke: #A80036; stroke-width: 1.0291595197255574;"/><polygon fill="#A80036" points="528.2955,174.6844,524.0943,183.9088,528.2484,179.83,532.3273,183.9841,528.2955,174.6844" style="stroke: #A80036; stroke-width: 1.0291595197255574;"/><path d="M524.7878,174.7951 C523.5571,184.9174 522.06,197.2313 520.4659,210.3425 C519.6689,216.8982 518.8476,223.6531 518.0233,230.4332 C517.6111,233.8232 517.1982,237.2195 516.7872,240.6003 C516.5817,242.2907 516.3766,243.9772 516.1724,245.6571 C516.0702,246.4971 515.9683,247.3354 515.8666,248.1717 C515.8158,248.5899 515.765,249.0075 515.7143,249.4247 C515.689,249.6332 515.6636,249.8417 515.6383,250.0499 " fill="none" style="stroke: #A80036; stroke-width: 1.0291595197255574;"/><polygon fill="#A80036" points="515.6383,250.0499,520.8427,241.3521,516.2593,244.9418,512.6696,240.3584,515.6383,250.0499" style="stroke: #A80036; stroke-width: 1.0291595197255574;"/><path d="M415.3869,292.0791 C414.0475,268.3722 409.5239,232.9736 395.1973,205.8319 C389.9416,195.8751 382.3503,186.5682 374.3939,178.4757 " fill="none" style="stroke: #A80036; stroke-width: 1.0291595197255574;"/><polygon fill="#A80036" points="370.4674,174.6032,374.1715,184.0382,374.1311,178.2165,379.9528,178.1762,370.4674,174.6032" style="stroke: #A80036; stroke-width: 1.0291595197255574;"/></g></svg>