<?xml version="1.0" encoding="UTF-8" standalone="no"?>
<!DOCTYPE svg PUBLIC "-//W3C//DTD SVG 1.1//EN"
 "http://www.w3.org/Graphics/SVG/1.1/DTD/svg11.dtd">
<!-- Generated by graphviz version 2.38.0 (20140413.2041)
 -->
<!-- Title: task_status_fsm Pages: 1 -->
<svg width="587pt" height="447pt"
 viewBox="0.00 0.00 587.00 447.00" xmlns="http://www.w3.org/2000/svg" xmlns:xlink="http://www.w3.org/1999/xlink">
<g id="graph0" class="graph" transform="scale(1 1) rotate(0) translate(4 443)">
<title>task_status_fsm</title>
<polygon fill="white" stroke="none" points="-4,4 -4,-443 583,-443 583,4 -4,4"/>
<!-- start -->
<g id="node1" class="node"><title>start</title>
<ellipse fill="black" stroke="black" cx="515.749" cy="-231.217" rx="1.8" ry="1.8"/>
</g>
<!-- STAGING -->
<g id="node2" class="node"><title>STAGING</title>
<ellipse fill="none" stroke="black" cx="466.2" cy="-157.399" rx="43" ry="43"/>
<text text-anchor="middle" x="466.2" y="-154.999" font-family="Times,serif" font-size="8.00">STAGING</text>
</g>
<!-- start&#45;&gt;STAGING -->
<g id="edge2" class="edge"><title>start&#45;&gt;STAGING</title>
<path fill="none" stroke="black" d="M514.714,-229.676C512.001,-225.633 504.303,-214.165 495.816,-201.521"/>
<polygon fill="black" stroke="black" points="498.649,-199.461 490.17,-193.109 492.837,-203.362 498.649,-199.461"/>
</g>
<!-- ERROR -->
<g id="node13" class="node"><title>ERROR</title>
<ellipse fill="none" stroke="black" cx="532.145" cy="-325.398" rx="43" ry="43"/>
<ellipse fill="none" stroke="black" cx="532.145" cy="-325.398" rx="47" ry="47"/>
<text text-anchor="middle" x="532.145" y="-322.998" font-family="Times,serif" font-size="8.00">ERROR</text>
</g>
<!-- start&#45;&gt;ERROR -->
<g id="edge1" class="edge"><title>start&#45;&gt;ERROR</title>
<path fill="none" stroke="black" d="M516.092,-233.185C516.987,-238.325 519.521,-252.88 522.318,-268.95"/>
<polygon fill="black" stroke="black" points="518.919,-269.83 524.082,-279.082 525.815,-268.629 518.919,-269.83"/>
</g>
<!-- STARTING -->
<g id="node3" class="node"><title>STARTING</title>
<ellipse fill="none" stroke="black" cx="362.219" cy="-265.706" rx="43" ry="43"/>
<text text-anchor="middle" x="362.219" y="-263.306" font-family="Times,serif" font-size="8.00">STARTING</text>
</g>
<!-- STAGING&#45;&gt;STARTING -->
<g id="edge3" class="edge"><title>STAGING&#45;&gt;STARTING</title>
<path fill="none" stroke="black" d="M436.403,-188.435C424.765,-200.558 411.299,-214.584 399.061,-227.331"/>
<polygon fill="black" stroke="black" points="396.421,-225.027 392.02,-234.665 401.471,-229.875 396.421,-225.027"/>
</g>
<!-- RUNNING -->
<g id="node4" class="node"><title>RUNNING</title>
<ellipse fill="none" stroke="black" cx="204.898" cy="-212.74" rx="43" ry="43"/>
<text text-anchor="middle" x="204.898" y="-210.34" font-family="Times,serif" font-size="8.00">RUNNING</text>
</g>
<!-- STARTING&#45;&gt;RUNNING -->
<g id="edge4" class="edge"><title>STARTING&#45;&gt;RUNNING</title>
<path fill="none" stroke="black" d="M321.296,-251.928C301.163,-245.15 276.709,-236.917 255.421,-229.749"/>
<polygon fill="black" stroke="black" points="256.484,-226.414 245.89,-226.541 254.25,-233.048 256.484,-226.414"/>
</g>
<!-- DROPPED -->
<g id="node14" class="node"><title>DROPPED</title>
<ellipse fill="none" stroke="black" cx="376.662" cy="-370.606" rx="43" ry="43"/>
<ellipse fill="none" stroke="black" cx="376.662" cy="-370.606" rx="47" ry="47"/>
<text text-anchor="middle" x="376.662" y="-368.206" font-family="Times,serif" font-size="8.00">DROPPED</text>
</g>
<!-- STARTING&#45;&gt;DROPPED -->
<g id="edge5" class="edge"><title>STARTING&#45;&gt;DROPPED</title>
<path fill="none" stroke="black" d="M368.094,-308.373C368.335,-310.128 368.579,-311.898 368.824,-313.675"/>
<polygon fill="black" stroke="black" points="365.396,-314.441 370.227,-323.87 372.331,-313.486 365.396,-314.441"/>
</g>
<!-- KILLING -->
<g id="node5" class="node"><title>KILLING</title>
<ellipse fill="none" stroke="black" cx="69.1864" cy="-288.352" rx="43" ry="43"/>
<text text-anchor="middle" x="69.1864" y="-285.952" font-family="Times,serif" font-size="8.00">KILLING</text>
</g>
<!-- RUNNING&#45;&gt;KILLING -->
<g id="edge12" class="edge"><title>RUNNING&#45;&gt;KILLING</title>
<path fill="none" stroke="black" d="M167.095,-233.802C151.213,-242.651 132.578,-253.033 115.853,-262.351"/>
<polygon fill="black" stroke="black" points="113.819,-259.478 106.787,-267.403 117.226,-265.593 113.819,-259.478"/>
</g>
<!-- UNREACHABLE -->
<g id="node6" class="node"><title>UNREACHABLE</title>
<ellipse fill="none" stroke="black" cx="163.673" cy="-374.226" rx="43" ry="43"/>
<text text-anchor="middle" x="163.673" y="-371.826" font-family="Times,serif" font-size="8.00">UNREACHABLE</text>
</g>
<!-- RUNNING&#45;&gt;UNREACHABLE -->
<g id="edge11" class="edge"><title>RUNNING&#45;&gt;UNREACHABLE</title>
<path fill="none" stroke="black" d="M194.174,-254.747C188.878,-275.493 182.44,-300.711 176.847,-322.623"/>
<polygon fill="black" stroke="black" points="173.425,-321.874 174.343,-332.429 180.208,-323.606 173.425,-321.874"/>
</g>
<!-- GONE_BY_OPERATOR -->
<g id="node7" class="node"><title>GONE_BY_OPERATOR</title>
<ellipse fill="none" stroke="black" cx="48.9927" cy="-176.376" rx="43" ry="43"/>
<text text-anchor="middle" x="48.9927" y="-173.976" font-family="Times,serif" font-size="8.00">GONE_BY_OPERATOR</text>
</g>
<!-- RUNNING&#45;&gt;GONE_BY_OPERATOR -->
<g id="edge7" class="edge"><title>RUNNING&#45;&gt;GONE_BY_OPERATOR</title>
<path fill="none" stroke="black" d="M164.494,-197.096C145.374,-191.819 122.297,-186.324 101.811,-182.136"/>
<polygon fill="black" stroke="black" points="102.481,-178.701 91.9918,-180.192 101.122,-185.567 102.481,-178.701"/>
</g>
<!-- UNKNOWN -->
<g id="node8" class="node"><title>UNKNOWN</title>
<ellipse fill="none" stroke="black" cx="321.978" cy="-109.847" rx="43" ry="43"/>
<text text-anchor="middle" x="321.978" y="-107.447" font-family="Times,serif" font-size="8.00">UNKNOWN</text>
</g>
<!-- RUNNING&#45;&gt;UNKNOWN -->
<g id="edge10" class="edge"><title>RUNNING&#45;&gt;UNKNOWN</title>
<path fill="none" stroke="black" d="M237.201,-184.351C250.907,-172.306 267.033,-158.134 281.521,-145.402"/>
<polygon fill="black" stroke="black" points="284.174,-147.73 289.375,-138.5 279.553,-142.472 284.174,-147.73"/>
</g>
<!-- GONE -->
<g id="node9" class="node"><title>GONE</title>
<ellipse fill="none" stroke="black" cx="114.989" cy="-71.1515" rx="43" ry="43"/>
<ellipse fill="none" stroke="black" cx="114.989" cy="-71.1515" rx="47" ry="47"/>
<text text-anchor="middle" x="114.989" y="-68.7515" font-family="Times,serif" font-size="8.00">GONE</text>
</g>
<!-- RUNNING&#45;&gt;GONE -->
<g id="edge6" class="edge"><title>RUNNING&#45;&gt;GONE</title>
<path fill="none" stroke="black" d="M181.744,-176.277C170.785,-159.018 157.544,-138.167 145.754,-119.6"/>
<polygon fill="black" stroke="black" points="148.592,-117.54 140.276,-110.974 142.682,-121.292 148.592,-117.54"/>
</g>
<!-- FINISHED -->
<g id="node10" class="node"><title>FINISHED</title>
<ellipse fill="none" stroke="black" cx="220.363" cy="-47.2636" rx="43" ry="43"/>
<ellipse fill="none" stroke="black" cx="220.363" cy="-47.2636" rx="47" ry="47"/>
<text text-anchor="middle" x="220.363" y="-44.8636" font-family="Times,serif" font-size="8.00">FINISHED</text>
</g>
<!-- RUNNING&#45;&gt;FINISHED -->
<g id="edge9" class="edge"><title>RUNNING&#45;&gt;FINISHED</title>
<path fill="none" stroke="black" d="M208.921,-169.695C210.791,-149.689 213.04,-125.625 215.047,-104.146"/>
<polygon fill="black" stroke="black" points="218.534,-104.444 215.98,-94.162 211.564,-103.793 218.534,-104.444"/>
</g>
<!-- FAILED -->
<g id="node11" class="node"><title>FAILED</title>
<ellipse fill="none" stroke="black" cx="262.384" cy="-310.925" rx="43" ry="43"/>
<ellipse fill="none" stroke="black" cx="262.384" cy="-310.925" rx="47" ry="47"/>
<text text-anchor="middle" x="262.384" y="-308.525" font-family="Times,serif" font-size="8.00">FAILED</text>
</g>
<!-- RUNNING&#45;&gt;FAILED -->
<g id="edge8" class="edge"><title>RUNNING&#45;&gt;FAILED</title>
<path fill="none" stroke="black" d="M226.631,-249.859C228.813,-253.586 231.052,-257.411 233.294,-261.24"/>
<polygon fill="black" stroke="black" points="230.433,-263.279 238.506,-270.14 236.473,-259.742 230.433,-263.279"/>
</g>
<!-- KILLED -->
<g id="node12" class="node"><title>KILLED</title>
<ellipse fill="none" stroke="black" cx="46.6511" cy="-392.061" rx="43" ry="43"/>
<ellipse fill="none" stroke="black" cx="46.6511" cy="-392.061" rx="47" ry="47"/>
<text text-anchor="middle" x="46.6511" y="-389.661" font-family="Times,serif" font-size="8.00">KILLED</text>
</g>
<!-- KILLING&#45;&gt;KILLED -->
<g id="edge13" class="edge"><title>KILLING&#45;&gt;KILLED</title>
<path fill="none" stroke="black" d="M60.0205,-330.534C59.6435,-332.269 59.2632,-334.019 58.8815,-335.776"/>
<polygon fill="black" stroke="black" points="55.3946,-335.34 56.6913,-345.855 62.2349,-336.827 55.3946,-335.34"/>
</g>
<!-- GONE_BY_OPERATOR&#45;&gt;RUNNING -->
<g id="edge15" class="edge"><title>GONE_BY_OPERATOR&#45;&gt;RUNNING</title>
<path fill="none" stroke="black" d="M89.3966,-192.02C108.517,-197.296 131.594,-202.792 152.08,-206.98"/>
<polygon fill="black" stroke="black" points="151.41,-210.415 161.899,-208.924 152.769,-203.548 151.41,-210.415"/>
</g>
<!-- GONE_BY_OPERATOR&#45;&gt;GONE -->
<g id="edge14" class="edge"><title>GONE_BY_OPERATOR&#45;&gt;GONE</title>
<path fill="none" stroke="black" d="M71.8896,-139.869C75.9732,-133.358 80.2851,-126.483 84.5402,-119.699"/>
<polygon fill="black" stroke="black" points="87.5297,-121.519 89.878,-111.188 81.5996,-117.8 87.5297,-121.519"/>
</g>
</g>
</svg>
