<?xml version="1.0" encoding="UTF-8" standalone="no"?>
<!DOCTYPE svg PUBLIC "-//W3C//DTD SVG 1.1//EN"
 "http://www.w3.org/Graphics/SVG/1.1/DTD/svg11.dtd">
<!-- Generated by graphviz version 2.38.0 (20140413.2041)
 -->
<!-- Title: task_status_fsm Pages: 1 -->
<svg width="711pt" height="587pt"
 viewBox="0.00 0.00 711.00 587.00" xmlns="http://www.w3.org/2000/svg" xmlns:xlink="http://www.w3.org/1999/xlink">
<g id="graph0" class="graph" transform="scale(1 1) rotate(0) translate(4 583)">
<title>task_status_fsm</title>
<polygon fill="white" stroke="none" points="-4,4 -4,-583 707,-583 707,4 -4,4"/>
<!-- start -->
<g id="node1" class="node"><title>start</title>
<ellipse fill="black" stroke="black" cx="32.5" cy="-500.5" rx="1.8" ry="1.8"/>
</g>
<!-- CREATED\n(Marathon Only) -->
<g id="node2" class="node"><title>CREATED\n(Marathon Only)</title>
<ellipse fill="none" stroke="black" cx="133.5" cy="-500.5" rx="32.5" ry="32.5"/>
<text text-anchor="middle" x="133.5" y="-502.1" font-family="Times,serif" font-size="8.00">CREATED</text>
<text text-anchor="middle" x="133.5" y="-494.1" font-family="Times,serif" font-size="8.00">(Marathon Only)</text>
</g>
<!-- start&#45;&gt;CREATED\n(Marathon Only) -->
<g id="edge1" class="edge"><title>start&#45;&gt;CREATED\n(Marathon Only)</title>
<path fill="none" stroke="black" d="M34.6118,-500.5C40.2997,-500.5 66.8086,-500.5 90.8065,-500.5"/>
<polygon fill="black" stroke="black" points="90.8696,-504 100.87,-500.5 90.8695,-497 90.8696,-504"/>
</g>
<!-- STAGING -->
<g id="node3" class="node"><title>STAGING</title>
<ellipse fill="none" stroke="black" cx="238.5" cy="-371.5" rx="32.5" ry="32.5"/>
<text text-anchor="middle" x="238.5" y="-369.1" font-family="Times,serif" font-size="8.00">STAGING</text>
</g>
<!-- CREATED\n(Marathon Only)&#45;&gt;STAGING -->
<g id="edge3" class="edge"><title>CREATED\n(Marathon Only)&#45;&gt;STAGING</title>
<path fill="none" stroke="black" d="M154.604,-475.321C170.697,-455.166 193.404,-426.727 210.984,-404.709"/>
<polygon fill="black" stroke="black" points="213.942,-406.614 217.447,-396.615 208.472,-402.246 213.942,-406.614"/>
</g>
<!-- ERROR -->
<g id="node14" class="node"><title>ERROR</title>
<ellipse fill="none" stroke="black" cx="238.5" cy="-542.5" rx="32.5" ry="32.5"/>
<ellipse fill="none" stroke="black" cx="238.5" cy="-542.5" rx="36.5" ry="36.5"/>
<text text-anchor="middle" x="238.5" y="-540.1" font-family="Times,serif" font-size="8.00">ERROR</text>
</g>
<!-- CREATED\n(Marathon Only)&#45;&gt;ERROR -->
<g id="edge2" class="edge"><title>CREATED\n(Marathon Only)&#45;&gt;ERROR</title>
<path fill="none" stroke="black" d="M163.74,-512.423C173.485,-516.397 184.546,-520.907 195.083,-525.204"/>
<polygon fill="black" stroke="black" points="193.979,-528.533 204.561,-529.068 196.622,-522.052 193.979,-528.533"/>
</g>
<!-- DROPPED -->
<g id="node15" class="node"><title>DROPPED</title>
<ellipse fill="none" stroke="black" cx="448.5" cy="-374.5" rx="32.5" ry="32.5"/>
<ellipse fill="none" stroke="black" cx="448.5" cy="-374.5" rx="36.5" ry="36.5"/>
<text text-anchor="middle" x="448.5" y="-372.1" font-family="Times,serif" font-size="8.00">DROPPED</text>
</g>
<!-- CREATED\n(Marathon Only)&#45;&gt;DROPPED -->
<g id="edge4" class="edge"><title>CREATED\n(Marathon Only)&#45;&gt;DROPPED</title>
<path fill="none" stroke="black" d="M163.946,-488.646C219.531,-466.27 340.113,-417.729 404.669,-391.742"/>
<polygon fill="black" stroke="black" points="406.182,-394.906 414.152,-387.925 403.568,-388.412 406.182,-394.906"/>
</g>
<!-- STARTING -->
<g id="node4" class="node"><title>STARTING</title>
<ellipse fill="none" stroke="black" cx="343.5" cy="-249.5" rx="32.5" ry="32.5"/>
<text text-anchor="middle" x="343.5" y="-247.1" font-family="Times,serif" font-size="8.00">STARTING</text>
</g>
<!-- STAGING&#45;&gt;STARTING -->
<g id="edge5" class="edge"><title>STAGING&#45;&gt;STARTING</title>
<path fill="none" stroke="black" d="M260.096,-347.105C275.955,-328.32 298.019,-302.186 315.325,-281.688"/>
<polygon fill="black" stroke="black" points="318.163,-283.752 321.94,-273.853 312.814,-279.236 318.163,-283.752"/>
</g>
<!-- STAGING&#45;&gt;DROPPED -->
<g id="edge6" class="edge"><title>STAGING&#45;&gt;DROPPED</title>
<path fill="none" stroke="black" d="M271.091,-371.956C305.831,-372.457 361.97,-373.266 401.574,-373.838"/>
<polygon fill="black" stroke="black" points="401.718,-377.34 411.768,-373.985 401.819,-370.341 401.718,-377.34"/>
</g>
<!-- RUNNING -->
<g id="node5" class="node"><title>RUNNING</title>
<ellipse fill="none" stroke="black" cx="448.5" cy="-211.5" rx="32.5" ry="32.5"/>
<text text-anchor="middle" x="448.5" y="-209.1" font-family="Times,serif" font-size="8.00">RUNNING</text>
</g>
<!-- STARTING&#45;&gt;RUNNING -->
<g id="edge7" class="edge"><title>STARTING&#45;&gt;RUNNING</title>
<path fill="none" stroke="black" d="M374.292,-238.509C384.861,-234.61 396.923,-230.159 408.165,-226.012"/>
<polygon fill="black" stroke="black" points="409.605,-229.211 417.775,-222.466 407.182,-222.644 409.605,-229.211"/>
</g>
<!-- STARTING&#45;&gt;DROPPED -->
<g id="edge8" class="edge"><title>STARTING&#45;&gt;DROPPED</title>
<path fill="none" stroke="black" d="M364.849,-274.196C380.066,-292.663 401.094,-318.183 418.132,-338.859"/>
<polygon fill="black" stroke="black" points="415.622,-341.318 424.683,-346.809 421.025,-336.866 415.622,-341.318"/>
</g>
<!-- KILLING -->
<g id="node6" class="node"><title>KILLING</title>
<ellipse fill="none" stroke="black" cx="557.5" cy="-123.5" rx="32.5" ry="32.5"/>
<text text-anchor="middle" x="557.5" y="-121.1" font-family="Times,serif" font-size="8.00">KILLING</text>
</g>
<!-- RUNNING&#45;&gt;KILLING -->
<g id="edge13" class="edge"><title>RUNNING&#45;&gt;KILLING</title>
<path fill="none" stroke="black" d="M474.048,-191.311C488.759,-179.212 507.65,-163.675 523.638,-150.527"/>
<polygon fill="black" stroke="black" points="526.195,-152.955 531.696,-143.9 521.749,-147.549 526.195,-152.955"/>
</g>
<!-- GONE BY\nOPERATOR -->
<g id="node8" class="node"><title>GONE BY\nOPERATOR</title>
<ellipse fill="none" stroke="black" cx="557.5" cy="-206.5" rx="32.5" ry="32.5"/>
<text text-anchor="middle" x="557.5" y="-208.1" font-family="Times,serif" font-size="8.00">GONE BY</text>
<text text-anchor="middle" x="557.5" y="-200.1" font-family="Times,serif" font-size="8.00">OPERATOR</text>
</g>
<!-- RUNNING&#45;&gt;GONE BY\nOPERATOR -->
<g id="edge10" class="edge"><title>RUNNING&#45;&gt;GONE BY\nOPERATOR</title>
<path fill="none" stroke="black" d="M491.063,-209.558C498.866,-209.193 507.026,-208.812 514.832,-208.447"/>
<polygon fill="black" stroke="black" points="490.85,-206.064 481.025,-210.027 491.177,-213.056 490.85,-206.064"/>
<polygon fill="black" stroke="black" points="515.005,-211.943 524.831,-207.98 514.678,-204.951 515.005,-211.943"/>
</g>
<!-- GONE -->
<g id="node10" class="node"><title>GONE</title>
<ellipse fill="none" stroke="black" cx="557.5" cy="-36.5" rx="32.5" ry="32.5"/>
<ellipse fill="none" stroke="black" cx="557.5" cy="-36.5" rx="36.5" ry="36.5"/>
<text text-anchor="middle" x="557.5" y="-34.1" font-family="Times,serif" font-size="8.00">GONE</text>
</g>
<!-- RUNNING&#45;&gt;GONE -->
<g id="edge9" class="edge"><title>RUNNING&#45;&gt;GONE</title>
<path fill="none" stroke="black" d="M463.674,-182.56C477.243,-155.677 498.87,-114.885 521,-81.5 522.928,-78.5919 524.993,-75.6363 527.123,-72.7006"/>
<polygon fill="black" stroke="black" points="530.043,-74.64 533.233,-64.5366 524.439,-70.4459 530.043,-74.64"/>
</g>
<!-- FINISHED -->
<g id="node11" class="node"><title>FINISHED</title>
<ellipse fill="none" stroke="black" cx="557.5" cy="-431.5" rx="32.5" ry="32.5"/>
<ellipse fill="none" stroke="black" cx="557.5" cy="-431.5" rx="36.5" ry="36.5"/>
<text text-anchor="middle" x="557.5" y="-429.1" font-family="Times,serif" font-size="8.00">FINISHED</text>
</g>
<!-- RUNNING&#45;&gt;FINISHED -->
<g id="edge12" class="edge"><title>RUNNING&#45;&gt;FINISHED</title>
<path fill="none" stroke="black" d="M460.755,-241.928C473.703,-275.796 496.37,-331.78 521,-377.5 523.829,-382.752 527.015,-388.152 530.286,-393.412"/>
<polygon fill="black" stroke="black" points="527.492,-395.538 535.826,-402.08 533.39,-391.769 527.492,-395.538"/>
</g>
<!-- FAILED -->
<g id="node12" class="node"><title>FAILED</title>
<ellipse fill="none" stroke="black" cx="557.5" cy="-332.5" rx="32.5" ry="32.5"/>
<ellipse fill="none" stroke="black" cx="557.5" cy="-332.5" rx="36.5" ry="36.5"/>
<text text-anchor="middle" x="557.5" y="-330.1" font-family="Times,serif" font-size="8.00">FAILED</text>
</g>
<!-- RUNNING&#45;&gt;FAILED -->
<g id="edge11" class="edge"><title>RUNNING&#45;&gt;FAILED</title>
<path fill="none" stroke="black" d="M470.64,-235.406C486.34,-253.16 507.995,-277.649 525.63,-297.591"/>
<polygon fill="black" stroke="black" points="523.17,-300.093 532.416,-305.265 528.414,-295.455 523.17,-300.093"/>
</g>
<!-- KILLED -->
<g id="node13" class="node"><title>KILLED</title>
<ellipse fill="none" stroke="black" cx="666.5" cy="-195.5" rx="32.5" ry="32.5"/>
<ellipse fill="none" stroke="black" cx="666.5" cy="-195.5" rx="36.5" ry="36.5"/>
<text text-anchor="middle" x="666.5" y="-193.1" font-family="Times,serif" font-size="8.00">KILLED</text>
</g>
<!-- RUNNING&#45;&gt;KILLED -->
<g id="edge14" class="edge"><title>RUNNING&#45;&gt;KILLED</title>
<path fill="none" stroke="black" d="M476.19,-228.681C489.164,-236.033 505.315,-243.774 521,-247.5 552.566,-254.998 563.146,-257.533 594,-247.5 607.376,-243.15 620.338,-235.251 631.468,-226.901"/>
<polygon fill="black" stroke="black" points="633.921,-229.424 639.599,-220.48 629.582,-223.931 633.921,-229.424"/>
</g>
<!-- KILLING&#45;&gt;KILLED -->
<g id="edge15" class="edge"><title>KILLING&#45;&gt;KILLED</title>
<path fill="none" stroke="black" d="M584.949,-141.298C597.659,-149.85 613.133,-160.263 627.109,-169.667"/>
<polygon fill="black" stroke="black" points="625.328,-172.687 635.579,-175.366 629.236,-166.88 625.328,-172.687"/>
</g>
<!-- UNREACHABLE -->
<g id="node7" class="node"><title>UNREACHABLE</title>
<ellipse fill="none" stroke="black" cx="32.5" cy="-233.5" rx="32.5" ry="32.5"/>
<text text-anchor="middle" x="32.5" y="-231.1" font-family="Times,serif" font-size="8.00">UNREACHABLE</text>
</g>
<!-- UNREACHABLE&#45;&gt;STAGING -->
<g id="edge21" class="edge"><title>UNREACHABLE&#45;&gt;STAGING</title>
<path fill="none" stroke="black" d="M53.9459,-270.918C65.6217,-289.279 81.7702,-310.417 101,-324.5 129.274,-345.206 167.385,-357.315 196.151,-364.04"/>
<polygon fill="black" stroke="black" points="56.7923,-268.865 48.5795,-262.172 50.8257,-272.526 56.7923,-268.865"/>
<polygon fill="black" stroke="black" points="195.771,-367.541 206.291,-366.281 197.281,-360.706 195.771,-367.541"/>
</g>
<!-- UNREACHABLE&#45;&gt;STARTING -->
<g id="edge20" class="edge"><title>UNREACHABLE&#45;&gt;STARTING</title>
<path fill="none" stroke="black" d="M74.5779,-241.14C83.2732,-242.492 92.4165,-243.716 101,-244.5 170.839,-250.881 252.488,-251.059 300.716,-250.415"/>
<polygon fill="black" stroke="black" points="75.0703,-237.674 64.6364,-239.514 73.9403,-244.583 75.0703,-237.674"/>
<polygon fill="black" stroke="black" points="300.829,-253.914 310.774,-250.262 300.722,-246.915 300.829,-253.914"/>
</g>
<!-- UNREACHABLE&#45;&gt;RUNNING -->
<g id="edge19" class="edge"><title>UNREACHABLE&#45;&gt;RUNNING</title>
<path fill="none" stroke="black" d="M56.8258,-198.032C68.266,-183.868 83.3888,-169.13 101,-161.5 205.984,-116.018 343.925,-164.458 409.591,-193.287"/>
<polygon fill="black" stroke="black" points="53.8332,-196.183 50.5246,-206.248 59.3877,-200.443 53.8332,-196.183"/>
<polygon fill="black" stroke="black" points="408.186,-196.493 418.743,-197.385 411.046,-190.104 408.186,-196.493"/>
</g>
<!-- UNREACHABLE&#45;&gt;KILLING -->
<g id="edge22" class="edge"><title>UNREACHABLE&#45;&gt;KILLING</title>
<path fill="none" stroke="black" d="M54.6323,-196.646C66.4906,-178.343 82.595,-156.91 101,-141.5 152.817,-98.1158 169.919,-74.5 237.5,-74.5 237.5,-74.5 237.5,-74.5 344.5,-74.5 406.051,-74.5 475.132,-94.3499 517.223,-108.782"/>
<polygon fill="black" stroke="black" points="51.5254,-195.012 49.1606,-205.339 57.4496,-198.741 51.5254,-195.012"/>
<polygon fill="black" stroke="black" points="516.213,-112.136 526.808,-112.135 518.525,-105.529 516.213,-112.136"/>
</g>
<!-- UNKNOWN -->
<g id="node9" class="node"><title>UNKNOWN</title>
<ellipse fill="none" stroke="black" cx="133.5" cy="-203.5" rx="32.5" ry="32.5"/>
<text text-anchor="middle" x="133.5" y="-201.1" font-family="Times,serif" font-size="8.00">UNKNOWN</text>
</g>
<!-- UNREACHABLE&#45;&gt;UNKNOWN -->
<g id="edge23" class="edge"><title>UNREACHABLE&#45;&gt;UNKNOWN</title>
<path fill="none" stroke="black" d="M63.7412,-224.336C72.7727,-221.599 82.8176,-218.555 92.378,-215.658"/>
<polygon fill="black" stroke="black" points="93.5477,-218.961 102.103,-212.711 91.5176,-212.262 93.5477,-218.961"/>
</g>
<!-- UNREACHABLE&#45;&gt;GONE -->
<g id="edge16" class="edge"><title>UNREACHABLE&#45;&gt;GONE</title>
<path fill="none" stroke="black" d="M40.439,-201.692C49.2034,-168.661 67.374,-117.559 101,-86.5 148.461,-42.6627 172.891,-36.5 237.5,-36.5 237.5,-36.5 237.5,-36.5 344.5,-36.5 401.793,-36.5 467.796,-36.5 510.733,-36.5"/>
<polygon fill="black" stroke="black" points="510.865,-40.0001 520.865,-36.5 510.865,-33.0001 510.865,-40.0001"/>
</g>
<!-- UNREACHABLE&#45;&gt;FINISHED -->
<g id="edge18" class="edge"><title>UNREACHABLE&#45;&gt;FINISHED</title>
<path fill="none" stroke="black" d="M46.2136,-263.454C72.7056,-320.588 139.603,-439.5 237.5,-439.5 237.5,-439.5 237.5,-439.5 344.5,-439.5 401.834,-439.5 467.828,-436.542 510.752,-434.223"/>
<polygon fill="black" stroke="black" points="511.089,-437.71 520.881,-433.665 510.703,-430.721 511.089,-437.71"/>
</g>
<!-- UNREACHABLE&#45;&gt;FAILED -->
<g id="edge17" class="edge"><title>UNREACHABLE&#45;&gt;FAILED</title>
<path fill="none" stroke="black" d="M62.1994,-247.182C73.9948,-252.334 87.931,-257.828 101,-261.5 247.673,-302.713 428.074,-321.892 510.944,-329.019"/>
<polygon fill="black" stroke="black" points="510.774,-332.516 521.032,-329.868 511.361,-325.541 510.774,-332.516"/>
</g>
<!-- UNKNOWN&#45;&gt;STAGING -->
<g id="edge26" class="edge"><title>UNKNOWN&#45;&gt;STAGING</title>
<path fill="none" stroke="black" d="M151.278,-230.866C168.711,-259.3 196.079,-303.939 215.294,-335.281"/>
<polygon fill="black" stroke="black" points="212.519,-337.45 220.729,-344.146 218.486,-333.791 212.519,-337.45"/>
</g>
<!-- UNKNOWN&#45;&gt;STARTING -->
<g id="edge25" class="edge"><title>UNKNOWN&#45;&gt;STARTING</title>
<path fill="none" stroke="black" d="M165.64,-210.387C201.816,-218.387 261.63,-231.615 301.545,-240.443"/>
<polygon fill="black" stroke="black" points="300.968,-243.899 311.488,-242.641 302.479,-237.065 300.968,-243.899"/>
</g>
<!-- UNKNOWN&#45;&gt;RUNNING -->
<g id="edge24" class="edge"><title>UNKNOWN&#45;&gt;RUNNING</title>
<path fill="none" stroke="black" d="M166.157,-203.628C212.313,-203.904 300.78,-204.774 376,-207.5 385.58,-207.847 395.876,-208.348 405.588,-208.879"/>
<polygon fill="black" stroke="black" points="405.652,-212.388 415.834,-209.46 406.049,-205.399 405.652,-212.388"/>
</g>
<!-- UNKNOWN&#45;&gt;KILLING -->
<g id="edge27" class="edge"><title>UNKNOWN&#45;&gt;KILLING</title>
<path fill="none" stroke="black" d="M165.531,-197.617C240.447,-183.415 431.219,-147.25 515.456,-131.281"/>
<polygon fill="black" stroke="black" points="516.251,-134.693 525.424,-129.391 514.947,-127.815 516.251,-134.693"/>
</g>
</g>
</svg>
