<?xml version="1.0" encoding="UTF-8" standalone="no"?>
<!DOCTYPE svg PUBLIC "-//W3C//DTD SVG 1.1//EN"
 "http://www.w3.org/Graphics/SVG/1.1/DTD/svg11.dtd">
<!-- Generated by graphviz version 2.38.0 (20140413.2041)
 -->
<!-- Title: task_status_fsm Pages: 1 -->
<svg width="650pt" height="636pt"
 viewBox="0.00 0.00 649.60 636.00" xmlns="http://www.w3.org/2000/svg" xmlns:xlink="http://www.w3.org/1999/xlink">
<g id="graph0" class="graph" transform="scale(1 1) rotate(0) translate(4 632)">
<title>task_status_fsm</title>
<polygon fill="white" stroke="none" points="-4,4 -4,-632 645.6,-632 645.6,4 -4,4"/>
<!-- start -->
<g id="node1" class="node"><title>start</title>
<ellipse fill="black" stroke="black" cx="1.8" cy="-526.5" rx="1.8" ry="1.8"/>
</g>
<!-- CREATED\n(Marathon Only) -->
<g id="node2" class="node"><title>CREATED\n(Marathon Only)</title>
<ellipse fill="none" stroke="black" cx="72.1" cy="-526.5" rx="32.5" ry="32.5"/>
<text text-anchor="middle" x="72.1" y="-528.1" font-family="Times,serif" font-size="8.00">CREATED</text>
<text text-anchor="middle" x="72.1" y="-520.1" font-family="Times,serif" font-size="8.00">(Marathon Only)</text>
</g>
<!-- start&#45;&gt;CREATED\n(Marathon Only) -->
<g id="edge1" class="edge"><title>start&#45;&gt;CREATED\n(Marathon Only)</title>
<path fill="none" stroke="black" d="M3.76551,-526.5C6.93229,-526.5 17.4815,-526.5 29.3199,-526.5"/>
<polygon fill="black" stroke="black" points="29.4337,-530 39.4336,-526.5 29.4336,-523 29.4337,-530"/>
</g>
<!-- STAGING -->
<g id="node3" class="node"><title>STAGING</title>
<ellipse fill="none" stroke="black" cx="177.1" cy="-465.5" rx="32.5" ry="32.5"/>
<text text-anchor="middle" x="177.1" y="-463.1" font-family="Times,serif" font-size="8.00">STAGING</text>
</g>
<!-- CREATED\n(Marathon Only)&#45;&gt;STAGING -->
<g id="edge3" class="edge"><title>CREATED\n(Marathon Only)&#45;&gt;STAGING</title>
<path fill="none" stroke="black" d="M100.432,-510.313C112.538,-503.144 126.948,-494.61 139.928,-486.922"/>
<polygon fill="black" stroke="black" points="141.82,-489.87 148.641,-481.762 138.253,-483.847 141.82,-489.87"/>
</g>
<!-- ERROR -->
<g id="node14" class="node"><title>ERROR</title>
<ellipse fill="none" stroke="black" cx="177.1" cy="-591.5" rx="32.5" ry="32.5"/>
<ellipse fill="none" stroke="black" cx="177.1" cy="-591.5" rx="36.5" ry="36.5"/>
<text text-anchor="middle" x="177.1" y="-589.1" font-family="Times,serif" font-size="8.00">ERROR</text>
</g>
<!-- CREATED\n(Marathon Only)&#45;&gt;ERROR -->
<g id="edge2" class="edge"><title>CREATED\n(Marathon Only)&#45;&gt;ERROR</title>
<path fill="none" stroke="black" d="M99.8932,-543.408C111.213,-550.552 124.619,-559.012 137.008,-566.83"/>
<polygon fill="black" stroke="black" points="135.479,-570.004 145.804,-572.381 139.215,-564.084 135.479,-570.004"/>
</g>
<!-- DROPPED -->
<g id="node15" class="node"><title>DROPPED</title>
<ellipse fill="none" stroke="black" cx="387.1" cy="-488.5" rx="32.5" ry="32.5"/>
<ellipse fill="none" stroke="black" cx="387.1" cy="-488.5" rx="36.5" ry="36.5"/>
<text text-anchor="middle" x="387.1" y="-486.1" font-family="Times,serif" font-size="8.00">DROPPED</text>
</g>
<!-- CREATED\n(Marathon Only)&#45;&gt;DROPPED -->
<g id="edge4" class="edge"><title>CREATED\n(Marathon Only)&#45;&gt;DROPPED</title>
<path fill="none" stroke="black" d="M104.545,-522.682C160.054,-515.943 275.628,-501.912 340.105,-494.084"/>
<polygon fill="black" stroke="black" points="340.874,-497.516 350.38,-492.837 340.031,-490.567 340.874,-497.516"/>
</g>
<!-- STARTING -->
<g id="node4" class="node"><title>STARTING</title>
<ellipse fill="none" stroke="black" cx="282.1" cy="-427.5" rx="32.5" ry="32.5"/>
<text text-anchor="middle" x="282.1" y="-425.1" font-family="Times,serif" font-size="8.00">STARTING</text>
</g>
<!-- STAGING&#45;&gt;STARTING -->
<g id="edge5" class="edge"><title>STAGING&#45;&gt;STARTING</title>
<path fill="none" stroke="black" d="M207.892,-454.509C218.461,-450.61 230.523,-446.159 241.765,-442.012"/>
<polygon fill="black" stroke="black" points="243.205,-445.211 251.375,-438.466 240.782,-438.644 243.205,-445.211"/>
</g>
<!-- STAGING&#45;&gt;DROPPED -->
<g id="edge6" class="edge"><title>STAGING&#45;&gt;DROPPED</title>
<path fill="none" stroke="black" d="M209.691,-468.993C244.609,-472.854 301.148,-479.106 340.783,-483.489"/>
<polygon fill="black" stroke="black" points="340.399,-486.968 350.724,-484.588 341.169,-480.01 340.399,-486.968"/>
</g>
<!-- RUNNING -->
<g id="node5" class="node"><title>RUNNING</title>
<ellipse fill="none" stroke="black" cx="387.1" cy="-267.5" rx="32.5" ry="32.5"/>
<text text-anchor="middle" x="387.1" y="-265.1" font-family="Times,serif" font-size="8.00">RUNNING</text>
</g>
<!-- STARTING&#45;&gt;RUNNING -->
<g id="edge7" class="edge"><title>STARTING&#45;&gt;RUNNING</title>
<path fill="none" stroke="black" d="M300.573,-400.358C317.789,-373.614 344.19,-332.603 363.103,-303.223"/>
<polygon fill="black" stroke="black" points="366.244,-304.81 368.714,-294.507 360.358,-301.021 366.244,-304.81"/>
</g>
<!-- STARTING&#45;&gt;DROPPED -->
<g id="edge8" class="edge"><title>STARTING&#45;&gt;DROPPED</title>
<path fill="none" stroke="black" d="M310.432,-443.687C321.558,-450.276 334.631,-458.018 346.751,-465.196"/>
<polygon fill="black" stroke="black" points="344.979,-468.214 355.367,-470.299 348.546,-462.191 344.979,-468.214"/>
</g>
<!-- KILLING -->
<g id="node6" class="node"><title>KILLING</title>
<ellipse fill="none" stroke="black" cx="496.1" cy="-206.5" rx="32.5" ry="32.5"/>
<text text-anchor="middle" x="496.1" y="-204.1" font-family="Times,serif" font-size="8.00">KILLING</text>
</g>
<!-- RUNNING&#45;&gt;KILLING -->
<g id="edge14" class="edge"><title>RUNNING&#45;&gt;KILLING</title>
<path fill="none" stroke="black" d="M415.655,-251.791C428.658,-244.378 444.36,-235.427 458.359,-227.446"/>
<polygon fill="black" stroke="black" points="460.312,-230.361 467.266,-222.368 456.845,-224.28 460.312,-230.361"/>
</g>
<!-- GONE BY\nOPERATOR -->
<g id="node8" class="node"><title>GONE BY\nOPERATOR</title>
<ellipse fill="none" stroke="black" cx="496.1" cy="-328.5" rx="32.5" ry="32.5"/>
<text text-anchor="middle" x="496.1" y="-330.1" font-family="Times,serif" font-size="8.00">GONE BY</text>
<text text-anchor="middle" x="496.1" y="-322.1" font-family="Times,serif" font-size="8.00">OPERATOR</text>
</g>
<!-- RUNNING&#45;&gt;GONE BY\nOPERATOR -->
<g id="edge10" class="edge"><title>RUNNING&#45;&gt;GONE BY\nOPERATOR</title>
<path fill="none" stroke="black" d="M424.542,-288.276C435.46,-294.499 447.435,-301.327 458.371,-307.561"/>
<polygon fill="black" stroke="black" points="426.076,-285.121 415.655,-283.209 422.609,-291.202 426.076,-285.121"/>
<polygon fill="black" stroke="black" points="456.845,-310.72 467.266,-312.632 460.312,-304.639 456.845,-310.72"/>
</g>
<!-- UNKNOWN -->
<g id="node9" class="node"><title>UNKNOWN</title>
<ellipse fill="none" stroke="black" cx="496.1" cy="-32.5" rx="32.5" ry="32.5"/>
<text text-anchor="middle" x="496.1" y="-30.1" font-family="Times,serif" font-size="8.00">UNKNOWN</text>
</g>
<!-- RUNNING&#45;&gt;UNKNOWN -->
<g id="edge13" class="edge"><title>RUNNING&#45;&gt;UNKNOWN</title>
<path fill="none" stroke="black" d="M395.91,-236.063C406.599,-196.367 428.118,-126.819 459.6,-73.5 461.59,-70.1302 463.869,-66.774 466.292,-63.5156"/>
<polygon fill="black" stroke="black" points="469.047,-65.6738 472.525,-55.666 463.565,-61.3207 469.047,-65.6738"/>
</g>
<!-- GONE -->
<g id="node10" class="node"><title>GONE</title>
<ellipse fill="none" stroke="black" cx="496.1" cy="-506.5" rx="32.5" ry="32.5"/>
<ellipse fill="none" stroke="black" cx="496.1" cy="-506.5" rx="36.5" ry="36.5"/>
<text text-anchor="middle" x="496.1" y="-504.1" font-family="Times,serif" font-size="8.00">GONE</text>
</g>
<!-- RUNNING&#45;&gt;GONE -->
<g id="edge9" class="edge"><title>RUNNING&#45;&gt;GONE</title>
<path fill="none" stroke="black" d="M401.129,-297.181C408.092,-313.409 416.639,-333.932 423.6,-352.5 441.362,-399.876 435.81,-415.845 459.6,-460.5 461.468,-464.006 463.601,-467.521 465.873,-470.96"/>
<polygon fill="black" stroke="black" points="463.124,-473.135 471.738,-479.304 468.85,-469.11 463.124,-473.135"/>
</g>
<!-- FINISHED -->
<g id="node11" class="node"><title>FINISHED</title>
<ellipse fill="none" stroke="black" cx="496.1" cy="-415.5" rx="32.5" ry="32.5"/>
<ellipse fill="none" stroke="black" cx="496.1" cy="-415.5" rx="36.5" ry="36.5"/>
<text text-anchor="middle" x="496.1" y="-413.1" font-family="Times,serif" font-size="8.00">FINISHED</text>
</g>
<!-- RUNNING&#45;&gt;FINISHED -->
<g id="edge12" class="edge"><title>RUNNING&#45;&gt;FINISHED</title>
<path fill="none" stroke="black" d="M407.947,-293.127C413.135,-300 418.657,-307.475 423.6,-314.5 440.414,-338.392 442.663,-345.695 459.6,-369.5 461.775,-372.557 464.067,-375.696 466.396,-378.829"/>
<polygon fill="black" stroke="black" points="463.779,-381.172 472.595,-387.049 469.368,-376.957 463.779,-381.172"/>
</g>
<!-- FAILED -->
<g id="node12" class="node"><title>FAILED</title>
<ellipse fill="none" stroke="black" cx="496.1" cy="-119.5" rx="32.5" ry="32.5"/>
<ellipse fill="none" stroke="black" cx="496.1" cy="-119.5" rx="36.5" ry="36.5"/>
<text text-anchor="middle" x="496.1" y="-117.1" font-family="Times,serif" font-size="8.00">FAILED</text>
</g>
<!-- RUNNING&#45;&gt;FAILED -->
<g id="edge11" class="edge"><title>RUNNING&#45;&gt;FAILED</title>
<path fill="none" stroke="black" d="M405.883,-240.939C420.091,-219.951 440.687,-190.042 459.6,-164.5 461.676,-161.696 463.85,-158.816 466.055,-155.933"/>
<polygon fill="black" stroke="black" points="468.947,-157.914 472.298,-147.863 463.411,-153.631 468.947,-157.914"/>
</g>
<!-- KILLED -->
<g id="node13" class="node"><title>KILLED</title>
<ellipse fill="none" stroke="black" cx="605.1" cy="-236.5" rx="32.5" ry="32.5"/>
<ellipse fill="none" stroke="black" cx="605.1" cy="-236.5" rx="36.5" ry="36.5"/>
<text text-anchor="middle" x="605.1" y="-234.1" font-family="Times,serif" font-size="8.00">KILLED</text>
</g>
<!-- RUNNING&#45;&gt;KILLED -->
<g id="edge15" class="edge"><title>RUNNING&#45;&gt;KILLED</title>
<path fill="none" stroke="black" d="M419.408,-263.306C448.689,-259.35 493.632,-253.194 532.6,-247.5 541.085,-246.26 550.131,-244.899 558.834,-243.57"/>
<polygon fill="black" stroke="black" points="559.487,-247.011 568.84,-242.033 558.424,-240.092 559.487,-247.011"/>
</g>
<!-- KILLING&#45;&gt;KILLED -->
<g id="edge16" class="edge"><title>KILLING&#45;&gt;KILLED</title>
<path fill="none" stroke="black" d="M527.476,-215.017C537.599,-217.855 549.09,-221.077 560.036,-224.146"/>
<polygon fill="black" stroke="black" points="559.308,-227.576 569.881,-226.906 561.197,-220.836 559.308,-227.576"/>
</g>
<!-- UNREACHABLE -->
<g id="node7" class="node"><title>UNREACHABLE</title>
<ellipse fill="none" stroke="black" cx="72.1" cy="-308.5" rx="32.5" ry="32.5"/>
<text text-anchor="middle" x="72.1" y="-306.1" font-family="Times,serif" font-size="8.00">UNREACHABLE</text>
</g>
<!-- UNREACHABLE&#45;&gt;STAGING -->
<g id="edge22" class="edge"><title>UNREACHABLE&#45;&gt;STAGING</title>
<path fill="none" stroke="black" d="M94.541,-345.415C107.399,-367.039 124.359,-394.692 140.6,-418.5 143.55,-422.824 146.739,-427.298 149.954,-431.689"/>
<polygon fill="black" stroke="black" points="97.3989,-343.372 89.296,-336.546 91.3736,-346.935 97.3989,-343.372"/>
<polygon fill="black" stroke="black" points="147.337,-434.035 156.113,-439.97 152.954,-429.857 147.337,-434.035"/>
</g>
<!-- UNREACHABLE&#45;&gt;STARTING -->
<g id="edge21" class="edge"><title>UNREACHABLE&#45;&gt;STARTING</title>
<path fill="none" stroke="black" d="M98.5971,-342.297C110.172,-355.733 124.806,-370.371 140.6,-380.5 171.104,-400.062 210.587,-412.328 239.927,-419.403"/>
<polygon fill="black" stroke="black" points="101.243,-340.005 92.1494,-334.568 95.8678,-344.489 101.243,-340.005"/>
<polygon fill="black" stroke="black" points="239.32,-422.855 249.851,-421.693 240.894,-416.034 239.32,-422.855"/>
</g>
<!-- UNREACHABLE&#45;&gt;RUNNING -->
<g id="edge20" class="edge"><title>UNREACHABLE&#45;&gt;RUNNING</title>
<path fill="none" stroke="black" d="M114.601,-303.064C174.477,-295.221 284.472,-280.812 344.438,-272.957"/>
<polygon fill="black" stroke="black" points="114.005,-299.612 104.545,-304.381 114.915,-306.553 114.005,-299.612"/>
<polygon fill="black" stroke="black" points="345.215,-276.385 354.676,-271.616 344.306,-269.445 345.215,-276.385"/>
</g>
<!-- UNREACHABLE&#45;&gt;KILLING -->
<g id="edge23" class="edge"><title>UNREACHABLE&#45;&gt;KILLING</title>
<path fill="none" stroke="black" d="M112.912,-296.009C122.004,-293.185 131.63,-290.219 140.6,-287.5 233.731,-259.267 255.4,-245.683 350.6,-225.5 384.88,-218.232 424.361,-213.268 453.382,-210.241"/>
<polygon fill="black" stroke="black" points="111.82,-292.683 103.312,-298.998 113.901,-299.366 111.82,-292.683"/>
<polygon fill="black" stroke="black" points="453.973,-213.699 463.572,-209.213 453.271,-206.734 453.973,-213.699"/>
</g>
<!-- UNREACHABLE&#45;&gt;UNKNOWN -->
<g id="edge24" class="edge"><title>UNREACHABLE&#45;&gt;UNKNOWN</title>
<path fill="none" stroke="black" d="M89.705,-280.988C102.021,-262.242 120.165,-237.784 140.6,-220.5 240.98,-135.6 386.012,-73.7071 455.312,-47.0385"/>
<polygon fill="black" stroke="black" points="456.873,-50.1896 464.973,-43.3608 454.382,-43.6476 456.873,-50.1896"/>
</g>
<!-- UNREACHABLE&#45;&gt;GONE -->
<g id="edge17" class="edge"><title>UNREACHABLE&#45;&gt;GONE</title>
<path fill="none" stroke="black" d="M103.599,-318.07C166.28,-337.759 304.573,-381.317 314.6,-385.5 365.054,-406.549 378.665,-411.363 423.6,-442.5 436.967,-451.763 450.536,-463.267 462.21,-473.957"/>
<polygon fill="black" stroke="black" points="459.885,-476.574 469.586,-480.832 464.657,-471.453 459.885,-476.574"/>
</g>
<!-- UNREACHABLE&#45;&gt;FINISHED -->
<g id="edge19" class="edge"><title>UNREACHABLE&#45;&gt;FINISHED</title>
<path fill="none" stroke="black" d="M104.652,-310.087C179.709,-314.239 366.853,-326.914 423.6,-352.5 438.57,-359.25 452.681,-370.236 464.347,-381.159"/>
<polygon fill="black" stroke="black" points="462.044,-383.803 471.645,-388.283 466.934,-378.794 462.044,-383.803"/>
</g>
<!-- UNREACHABLE&#45;&gt;FAILED -->
<g id="edge18" class="edge"><title>UNREACHABLE&#45;&gt;FAILED</title>
<path fill="none" stroke="black" d="M98.1197,-288.526C110.453,-279.259 125.822,-268.542 140.6,-260.5 247.206,-202.489 382.822,-155.285 451.301,-133.138"/>
<polygon fill="black" stroke="black" points="452.455,-136.443 460.906,-130.054 450.315,-129.778 452.455,-136.443"/>
</g>
</g>
</svg>
