<?xml version="1.0" encoding="UTF-8" standalone="no"?>
<!DOCTYPE svg PUBLIC "-//W3C//DTD SVG 1.1//EN"
 "http://www.w3.org/Graphics/SVG/1.1/DTD/svg11.dtd">
<!-- Generated by graphviz version 2.38.0 (20140413.2041)
 -->
<!-- Title: task_status_fsm Pages: 1 -->
<svg width="751pt" height="525pt"
 viewBox="0.00 0.00 750.60 524.69" xmlns="http://www.w3.org/2000/svg" xmlns:xlink="http://www.w3.org/1999/xlink">
<g id="graph0" class="graph" transform="scale(1 1) rotate(0) translate(4 520.69)">
<title>task_status_fsm</title>
<polygon fill="white" stroke="none" points="-4,4 -4,-520.69 746.6,-520.69 746.6,4 -4,4"/>
<!-- start -->
<g id="node1" class="node"><title>start</title>
<ellipse fill="black" stroke="black" cx="1.8" cy="-413.881" rx="1.8" ry="1.8"/>
</g>
<!-- CREATED\n(Marathon Only) -->
<g id="node2" class="node"><title>CREATED\n(Marathon Only)</title>
<ellipse fill="none" stroke="black" cx="72.1" cy="-413.881" rx="32.5" ry="32.5"/>
<text text-anchor="middle" x="72.1" y="-415.481" font-family="Times,serif" font-size="8.00">CREATED</text>
<text text-anchor="middle" x="72.1" y="-407.481" font-family="Times,serif" font-size="8.00">(Marathon Only)</text>
</g>
<!-- start&#45;&gt;CREATED\n(Marathon Only) -->
<g id="edge1" class="edge"><title>start&#45;&gt;CREATED\n(Marathon Only)</title>
<path fill="none" stroke="black" d="M3.76551,-413.881C6.93229,-413.881 17.4815,-413.881 29.3199,-413.881"/>
<polygon fill="black" stroke="black" points="29.4337,-417.381 39.4336,-413.881 29.4336,-410.381 29.4337,-417.381"/>
</g>
<!-- STAGING -->
<g id="node3" class="node"><title>STAGING</title>
<ellipse fill="none" stroke="black" cx="177.1" cy="-457.881" rx="32.5" ry="32.5"/>
<text text-anchor="middle" x="177.1" y="-455.481" font-family="Times,serif" font-size="8.00">STAGING</text>
</g>
<!-- CREATED\n(Marathon Only)&#45;&gt;STAGING -->
<g id="edge3" class="edge"><title>CREATED\n(Marathon Only)&#45;&gt;STAGING</title>
<path fill="none" stroke="black" d="M102.34,-426.372C113.213,-431.017 125.725,-436.362 137.319,-441.315"/>
<polygon fill="black" stroke="black" points="136.216,-444.649 146.787,-445.359 138.966,-438.212 136.216,-444.649"/>
</g>
<!-- ERROR -->
<g id="node14" class="node"><title>ERROR</title>
<ellipse fill="none" stroke="black" cx="177.1" cy="-370.881" rx="32.5" ry="32.5"/>
<ellipse fill="none" stroke="black" cx="177.1" cy="-370.881" rx="36.5" ry="36.5"/>
<text text-anchor="middle" x="177.1" y="-368.481" font-family="Times,serif" font-size="8.00">ERROR</text>
</g>
<!-- CREATED\n(Marathon Only)&#45;&gt;ERROR -->
<g id="edge2" class="edge"><title>CREATED\n(Marathon Only)&#45;&gt;ERROR</title>
<path fill="none" stroke="black" d="M102.34,-401.674C112.085,-397.606 123.146,-392.988 133.683,-388.589"/>
<polygon fill="black" stroke="black" points="135.281,-391.715 143.161,-384.633 132.584,-385.255 135.281,-391.715"/>
</g>
<!-- STARTING -->
<g id="node4" class="node"><title>STARTING</title>
<ellipse fill="none" stroke="black" cx="282.1" cy="-424.881" rx="32.5" ry="32.5"/>
<text text-anchor="middle" x="282.1" y="-422.481" font-family="Times,serif" font-size="8.00">STARTING</text>
</g>
<!-- STAGING&#45;&gt;STARTING -->
<g id="edge4" class="edge"><title>STAGING&#45;&gt;STARTING</title>
<path fill="none" stroke="black" d="M208.169,-448.248C218.443,-444.956 230.103,-441.22 241.037,-437.717"/>
<polygon fill="black" stroke="black" points="242.36,-440.968 250.816,-434.584 240.224,-434.302 242.36,-440.968"/>
</g>
<!-- UNREACHABLE -->
<g id="node7" class="node"><title>UNREACHABLE</title>
<ellipse fill="none" stroke="black" cx="597.1" cy="-311.881" rx="32.5" ry="32.5"/>
<text text-anchor="middle" x="597.1" y="-309.481" font-family="Times,serif" font-size="8.00">UNREACHABLE</text>
</g>
<!-- STAGING&#45;&gt;UNREACHABLE -->
<g id="edge21" class="edge"><title>STAGING&#45;&gt;UNREACHABLE</title>
<path fill="none" stroke="black" d="M214.89,-477.787C264.327,-501.686 354.023,-534.904 423.6,-503.881 494.582,-472.232 548.561,-395.34 575.996,-349.035"/>
<polygon fill="black" stroke="black" points="216.363,-474.611 205.85,-473.302 213.252,-480.882 216.363,-474.611"/>
<polygon fill="black" stroke="black" points="579.129,-350.61 581.126,-340.205 573.076,-347.093 579.129,-350.61"/>
</g>
<!-- RUNNING -->
<g id="node5" class="node"><title>RUNNING</title>
<ellipse fill="none" stroke="black" cx="387.1" cy="-192.881" rx="32.5" ry="32.5"/>
<text text-anchor="middle" x="387.1" y="-190.481" font-family="Times,serif" font-size="8.00">RUNNING</text>
</g>
<!-- STARTING&#45;&gt;RUNNING -->
<g id="edge5" class="edge"><title>STARTING&#45;&gt;RUNNING</title>
<path fill="none" stroke="black" d="M296.145,-395.498C314.591,-353.949 348.33,-277.956 368.834,-231.771"/>
<polygon fill="black" stroke="black" points="372.14,-232.951 372.999,-222.391 365.742,-230.111 372.14,-232.951"/>
</g>
<!-- STARTING&#45;&gt;UNREACHABLE -->
<g id="edge20" class="edge"><title>STARTING&#45;&gt;UNREACHABLE</title>
<path fill="none" stroke="black" d="M322.472,-410.667C382.542,-388.98 496.426,-347.866 556.583,-326.148"/>
<polygon fill="black" stroke="black" points="321.046,-407.461 312.828,-414.149 323.423,-414.045 321.046,-407.461"/>
<polygon fill="black" stroke="black" points="557.895,-329.395 566.112,-322.708 555.518,-322.811 557.895,-329.395"/>
</g>
<!-- DROPPED -->
<g id="node15" class="node"><title>DROPPED</title>
<ellipse fill="none" stroke="black" cx="387.1" cy="-457.881" rx="32.5" ry="32.5"/>
<ellipse fill="none" stroke="black" cx="387.1" cy="-457.881" rx="36.5" ry="36.5"/>
<text text-anchor="middle" x="387.1" y="-455.481" font-family="Times,serif" font-size="8.00">DROPPED</text>
</g>
<!-- STARTING&#45;&gt;DROPPED -->
<g id="edge6" class="edge"><title>STARTING&#45;&gt;DROPPED</title>
<path fill="none" stroke="black" d="M313.169,-434.515C322.343,-437.454 332.621,-440.747 342.502,-443.913"/>
<polygon fill="black" stroke="black" points="341.603,-447.3 352.194,-447.018 343.739,-440.634 341.603,-447.3"/>
</g>
<!-- KILLING -->
<g id="node6" class="node"><title>KILLING</title>
<ellipse fill="none" stroke="black" cx="492.1" cy="-224.881" rx="32.5" ry="32.5"/>
<text text-anchor="middle" x="492.1" y="-222.481" font-family="Times,serif" font-size="8.00">KILLING</text>
</g>
<!-- RUNNING&#45;&gt;KILLING -->
<g id="edge12" class="edge"><title>RUNNING&#45;&gt;KILLING</title>
<path fill="none" stroke="black" d="M418.446,-202.309C428.714,-205.499 440.34,-209.111 451.233,-212.495"/>
<polygon fill="black" stroke="black" points="450.382,-215.896 460.971,-215.521 452.459,-209.211 450.382,-215.896"/>
</g>
<!-- RUNNING&#45;&gt;UNREACHABLE -->
<g id="edge19" class="edge"><title>RUNNING&#45;&gt;UNREACHABLE</title>
<path fill="none" stroke="black" d="M414.08,-226.286C426.55,-240.456 442.493,-256.144 459.6,-266.881 488.963,-285.312 526.66,-296.992 554.996,-303.82"/>
<polygon fill="black" stroke="black" points="416.68,-223.941 407.524,-218.611 411.357,-228.488 416.68,-223.941"/>
<polygon fill="black" stroke="black" points="554.449,-307.285 564.98,-306.119 556.02,-300.464 554.449,-307.285"/>
</g>
<!-- GONE BY\nOPERATOR -->
<g id="node8" class="node"><title>GONE BY\nOPERATOR</title>
<ellipse fill="none" stroke="black" cx="492.1" cy="-60.8812" rx="32.5" ry="32.5"/>
<text text-anchor="middle" x="492.1" y="-62.4812" font-family="Times,serif" font-size="8.00">GONE BY</text>
<text text-anchor="middle" x="492.1" y="-54.4812" font-family="Times,serif" font-size="8.00">OPERATOR</text>
</g>
<!-- RUNNING&#45;&gt;GONE BY\nOPERATOR -->
<g id="edge8" class="edge"><title>RUNNING&#45;&gt;GONE BY\nOPERATOR</title>
<path fill="none" stroke="black" d="M413.983,-159.71C429.576,-139.727 449.373,-114.356 465.005,-94.324"/>
<polygon fill="black" stroke="black" points="411.108,-157.705 407.716,-167.742 416.627,-162.012 411.108,-157.705"/>
<polygon fill="black" stroke="black" points="467.814,-96.4132 471.206,-86.3761 462.295,-92.1069 467.814,-96.4132"/>
</g>
<!-- UNKNOWN -->
<g id="node9" class="node"><title>UNKNOWN</title>
<ellipse fill="none" stroke="black" cx="706.1" cy="-366.881" rx="32.5" ry="32.5"/>
<text text-anchor="middle" x="706.1" y="-364.481" font-family="Times,serif" font-size="8.00">UNKNOWN</text>
</g>
<!-- RUNNING&#45;&gt;UNKNOWN -->
<g id="edge11" class="edge"><title>RUNNING&#45;&gt;UNKNOWN</title>
<path fill="none" stroke="black" d="M403.492,-221.35C416.381,-243.328 436.37,-273.497 459.6,-294.881 497.848,-330.09 511.079,-338.061 560.6,-353.881 594.043,-364.565 633.905,-367.468 663.282,-367.897"/>
<polygon fill="black" stroke="black" points="663.58,-371.398 673.599,-367.953 663.618,-364.399 663.58,-371.398"/>
</g>
<!-- GONE -->
<g id="node10" class="node"><title>GONE</title>
<ellipse fill="none" stroke="black" cx="706.1" cy="-60.8812" rx="32.5" ry="32.5"/>
<ellipse fill="none" stroke="black" cx="706.1" cy="-60.8812" rx="36.5" ry="36.5"/>
<text text-anchor="middle" x="706.1" y="-58.4812" font-family="Times,serif" font-size="8.00">GONE</text>
</g>
<!-- RUNNING&#45;&gt;GONE -->
<g id="edge7" class="edge"><title>RUNNING&#45;&gt;GONE</title>
<path fill="none" stroke="black" d="M390.988,-160.326C396.549,-119.547 412.73,-51.2257 459.6,-19.8812 522.158,21.9543 613.222,-12.1085 665.052,-38.163"/>
<polygon fill="black" stroke="black" points="663.766,-41.438 674.258,-42.9147 666.977,-35.2178 663.766,-41.438"/>
</g>
<!-- FINISHED -->
<g id="node11" class="node"><title>FINISHED</title>
<ellipse fill="none" stroke="black" cx="706.1" cy="-274.881" rx="32.5" ry="32.5"/>
<ellipse fill="none" stroke="black" cx="706.1" cy="-274.881" rx="36.5" ry="36.5"/>
<text text-anchor="middle" x="706.1" y="-272.481" font-family="Times,serif" font-size="8.00">FINISHED</text>
</g>
<!-- RUNNING&#45;&gt;FINISHED -->
<g id="edge10" class="edge"><title>RUNNING&#45;&gt;FINISHED</title>
<path fill="none" stroke="black" d="M417.973,-182.301C466.201,-167.116 562.946,-144.629 633.6,-179.881 646.102,-186.119 665.376,-212.326 680.764,-235.637"/>
<polygon fill="black" stroke="black" points="677.851,-237.578 686.237,-244.052 683.719,-233.761 677.851,-237.578"/>
</g>
<!-- FAILED -->
<g id="node12" class="node"><title>FAILED</title>
<ellipse fill="none" stroke="black" cx="706.1" cy="-172.881" rx="32.5" ry="32.5"/>
<ellipse fill="none" stroke="black" cx="706.1" cy="-172.881" rx="36.5" ry="36.5"/>
<text text-anchor="middle" x="706.1" y="-170.481" font-family="Times,serif" font-size="8.00">FAILED</text>
</g>
<!-- RUNNING&#45;&gt;FAILED -->
<g id="edge9" class="edge"><title>RUNNING&#45;&gt;FAILED</title>
<path fill="none" stroke="black" d="M412.091,-172.001C425.185,-161.995 442.238,-151.077 459.6,-145.881 533.687,-123.711 557.523,-131.996 633.6,-145.881 643.385,-147.667 653.57,-150.722 663.082,-154.15"/>
<polygon fill="black" stroke="black" points="662.115,-157.527 672.705,-157.819 664.608,-150.986 662.115,-157.527"/>
</g>
<!-- KILLING&#45;&gt;UNREACHABLE -->
<g id="edge22" class="edge"><title>KILLING&#45;&gt;UNREACHABLE</title>
<path fill="none" stroke="black" d="M525.482,-252.233C537.689,-262.544 551.565,-274.264 563.767,-284.57"/>
<polygon fill="black" stroke="black" points="527.408,-249.278 517.51,-245.499 522.891,-254.626 527.408,-249.278"/>
<polygon fill="black" stroke="black" points="561.611,-287.331 571.509,-291.11 566.128,-281.983 561.611,-287.331"/>
</g>
<!-- KILLED -->
<g id="node13" class="node"><title>KILLED</title>
<ellipse fill="none" stroke="black" cx="597.1" cy="-224.881" rx="32.5" ry="32.5"/>
<ellipse fill="none" stroke="black" cx="597.1" cy="-224.881" rx="36.5" ry="36.5"/>
<text text-anchor="middle" x="597.1" y="-222.481" font-family="Times,serif" font-size="8.00">KILLED</text>
</g>
<!-- KILLING&#45;&gt;KILLED -->
<g id="edge13" class="edge"><title>KILLING&#45;&gt;KILLED</title>
<path fill="none" stroke="black" d="M524.844,-224.881C532.828,-224.881 541.559,-224.881 550.087,-224.881"/>
<polygon fill="black" stroke="black" points="550.325,-228.381 560.325,-224.881 550.325,-221.381 550.325,-228.381"/>
</g>
<!-- UNREACHABLE&#45;&gt;UNKNOWN -->
<g id="edge15" class="edge"><title>UNREACHABLE&#45;&gt;UNKNOWN</title>
<path fill="none" stroke="black" d="M626.213,-326.332C638.891,-332.848 654.045,-340.638 667.667,-347.64"/>
<polygon fill="black" stroke="black" points="666.309,-350.877 676.803,-352.336 669.509,-344.652 666.309,-350.877"/>
</g>
<!-- UNREACHABLE&#45;&gt;GONE -->
<g id="edge16" class="edge"><title>UNREACHABLE&#45;&gt;GONE</title>
<path fill="none" stroke="black" d="M620.801,-289.428C625.587,-283.746 630.208,-277.395 633.6,-270.881 663.872,-212.753 646.088,-189.057 669.6,-127.881 673.07,-118.853 677.473,-109.488 681.986,-100.723"/>
<polygon fill="black" stroke="black" points="685.101,-102.319 686.696,-91.8453 678.918,-99.0386 685.101,-102.319"/>
</g>
<!-- UNREACHABLE&#45;&gt;FINISHED -->
<g id="edge18" class="edge"><title>UNREACHABLE&#45;&gt;FINISHED</title>
<path fill="none" stroke="black" d="M628.19,-301.476C638.612,-297.872 650.511,-293.758 661.783,-289.86"/>
<polygon fill="black" stroke="black" points="663.168,-293.084 671.475,-286.509 660.88,-286.469 663.168,-293.084"/>
</g>
<!-- UNREACHABLE&#45;&gt;FAILED -->
<g id="edge17" class="edge"><title>UNREACHABLE&#45;&gt;FAILED</title>
<path fill="none" stroke="black" d="M619.464,-287.882C624.207,-282.37 629.145,-276.481 633.6,-270.881 649.063,-251.443 665.453,-229.115 678.635,-210.686"/>
<polygon fill="black" stroke="black" points="681.502,-212.694 684.451,-202.517 675.8,-208.634 681.502,-212.694"/>
</g>
<!-- GONE BY\nOPERATOR&#45;&gt;GONE -->
<g id="edge14" class="edge"><title>GONE BY\nOPERATOR&#45;&gt;GONE</title>
<path fill="none" stroke="black" d="M524.839,-60.8812C560.436,-60.8812 618.487,-60.8812 659.066,-60.8812"/>
<polygon fill="black" stroke="black" points="659.239,-64.3813 669.239,-60.8812 659.239,-57.3813 659.239,-64.3813"/>
</g>
</g>
</svg>
