<!-- Generator: Adobe Illustrator 17.1.0, SVG Export Plug-In  -->
<svg version="1.1"
   xmlns="http://www.w3.org/2000/svg" xmlns:xlink="http://www.w3.org/1999/xlink" xmlns:a="http://ns.adobe.com/AdobeSVGViewerExtensions/3.0/"
   x="0px" y="0px" width="175.7px" height="175.4px" viewBox="0 0 175.7 175.4" enable-background="new 0 0 175.7 175.4"
   xml:space="preserve">
<defs>
</defs>
<path opacity="0.83" fill="#00FFC1" d="M87.7,0C39.3,0,0,39.3,0,87.7s39.3,87.7,87.7,87.7s87.7-39.3,87.7-87.7S136.2,0,87.7,0z
   M87.7,119.4c-17.5,0-31.6-14.2-31.6-31.6s14.2-31.6,31.6-31.6s31.6,14.2,31.6,31.6S105.2,119.4,87.7,119.4z"/>
<path opacity="0.93" fill="#0074FF" d="M119.4,87.7C119.4,87.7,119.4,87.7,119.4,87.7c0,17.5-14.2,31.7-31.6,31.7
  s-31.6-14.2-31.6-31.6c0,0,0,0,0,0H0c0,48.4,39.3,87.7,87.7,87.7s87.7-39.3,87.7-87.7H119.4z"/>
<path opacity="0.94" fill="#00FF98" d="M169.1,54.5l-52,21.4c1.5,3.7,2.3,7.6,2.3,11.8c0,13.2-8,24.5-19.5,29.2l21.4,52
  C166.1,150.6,187.5,99.3,169.1,54.5z"/>
<path opacity="0.77" fill="#00D5FF" d="M59.2,101.4L8.6,125.5c10.4,21.9,28.7,37.4,49.9,44.9l18.7-52.9
  C69.3,114.7,62.8,108.9,59.2,101.4z"/>
<g>
  <path fill="#78FF00" d="M148.7,24.5l-39,40.4c4.1,3.9,7.1,8.8,8.6,14.2l54.1-15.1C168.1,48.6,159.7,35.1,148.7,24.5z"/>
</g>
</svg>
