<?xml version="1.0" encoding="UTF-8" standalone="no"?>
<!DOCTYPE svg PUBLIC "-//W3C//DTD SVG 1.1//EN"
 "http://www.w3.org/Graphics/SVG/1.1/DTD/svg11.dtd">
<!-- Generated by graphviz version 2.38.0 (20140413.2041)
 -->
<!-- Title: task_status_fsm Pages: 1 -->
<svg width="711pt" height="647pt"
 viewBox="0.00 0.00 711.00 646.50" xmlns="http://www.w3.org/2000/svg" xmlns:xlink="http://www.w3.org/1999/xlink">
<g id="graph0" class="graph" transform="scale(1 1) rotate(0) translate(4 642.5)">
<title>task_status_fsm</title>
<polygon fill="white" stroke="none" points="-4,4 -4,-642.5 707,-642.5 707,4 -4,4"/>
<!-- start -->
<g id="node1" class="node"><title>start</title>
<ellipse fill="black" stroke="black" cx="32.5" cy="-437.5" rx="1.8" ry="1.8"/>
</g>
<!-- CREATED\n(Marathon Only) -->
<g id="node2" class="node"><title>CREATED\n(Marathon Only)</title>
<ellipse fill="none" stroke="black" cx="133.5" cy="-437.5" rx="32.5" ry="32.5"/>
<text text-anchor="middle" x="133.5" y="-439.1" font-family="Times,serif" font-size="8.00">CREATED</text>
<text text-anchor="middle" x="133.5" y="-431.1" font-family="Times,serif" font-size="8.00">(Marathon Only)</text>
</g>
<!-- start&#45;&gt;CREATED\n(Marathon Only) -->
<g id="edge1" class="edge"><title>start&#45;&gt;CREATED\n(Marathon Only)</title>
<path fill="none" stroke="black" d="M34.6118,-437.5C40.2997,-437.5 66.8086,-437.5 90.8065,-437.5"/>
<polygon fill="black" stroke="black" points="90.8696,-441 100.87,-437.5 90.8695,-434 90.8696,-441"/>
</g>
<!-- STAGING -->
<g id="node3" class="node"><title>STAGING</title>
<ellipse fill="none" stroke="black" cx="238.5" cy="-371.5" rx="32.5" ry="32.5"/>
<text text-anchor="middle" x="238.5" y="-369.1" font-family="Times,serif" font-size="8.00">STAGING</text>
</g>
<!-- CREATED\n(Marathon Only)&#45;&gt;STAGING -->
<g id="edge3" class="edge"><title>CREATED\n(Marathon Only)&#45;&gt;STAGING</title>
<path fill="none" stroke="black" d="M161.293,-420.332C173.81,-412.311 188.88,-402.655 202.302,-394.054"/>
<polygon fill="black" stroke="black" points="204.31,-396.925 210.841,-388.582 200.533,-391.031 204.31,-396.925"/>
</g>
<!-- RUNNING -->
<g id="node5" class="node"><title>RUNNING</title>
<ellipse fill="none" stroke="black" cx="448.5" cy="-192.5" rx="32.5" ry="32.5"/>
<text text-anchor="middle" x="448.5" y="-190.1" font-family="Times,serif" font-size="8.00">RUNNING</text>
</g>
<!-- CREATED\n(Marathon Only)&#45;&gt;RUNNING -->
<g id="edge4" class="edge"><title>CREATED\n(Marathon Only)&#45;&gt;RUNNING</title>
<path fill="none" stroke="black" d="M166.063,-435.663C217.94,-430.876 320.955,-413.627 376,-351.5 406.234,-317.376 425.643,-268.361 436.498,-233.793"/>
<polygon fill="black" stroke="black" points="439.913,-234.592 439.465,-224.006 433.215,-232.561 439.913,-234.592"/>
</g>
<!-- ERROR -->
<g id="node14" class="node"><title>ERROR</title>
<ellipse fill="none" stroke="black" cx="238.5" cy="-535.5" rx="32.5" ry="32.5"/>
<ellipse fill="none" stroke="black" cx="238.5" cy="-535.5" rx="36.5" ry="36.5"/>
<text text-anchor="middle" x="238.5" y="-533.1" font-family="Times,serif" font-size="8.00">ERROR</text>
</g>
<!-- CREATED\n(Marathon Only)&#45;&gt;ERROR -->
<g id="edge2" class="edge"><title>CREATED\n(Marathon Only)&#45;&gt;ERROR</title>
<path fill="none" stroke="black" d="M157.615,-459.493C171.377,-472.587 189.073,-489.423 204.309,-503.921"/>
<polygon fill="black" stroke="black" points="201.906,-506.465 211.564,-510.823 206.732,-501.394 201.906,-506.465"/>
</g>
<!-- DROPPED -->
<g id="node15" class="node"><title>DROPPED</title>
<ellipse fill="none" stroke="black" cx="448.5" cy="-371.5" rx="32.5" ry="32.5"/>
<ellipse fill="none" stroke="black" cx="448.5" cy="-371.5" rx="36.5" ry="36.5"/>
<text text-anchor="middle" x="448.5" y="-369.1" font-family="Times,serif" font-size="8.00">DROPPED</text>
</g>
<!-- CREATED\n(Marathon Only)&#45;&gt;DROPPED -->
<g id="edge5" class="edge"><title>CREATED\n(Marathon Only)&#45;&gt;DROPPED</title>
<path fill="none" stroke="black" d="M164.995,-446.652C212.341,-459.14 305.421,-476.727 376,-446.5 393.999,-438.791 409.618,-424.08 421.627,-409.714"/>
<polygon fill="black" stroke="black" points="424.426,-411.817 427.919,-401.815 418.951,-407.456 424.426,-411.817"/>
</g>
<!-- STARTING -->
<g id="node4" class="node"><title>STARTING</title>
<ellipse fill="none" stroke="black" cx="343.5" cy="-310.5" rx="32.5" ry="32.5"/>
<text text-anchor="middle" x="343.5" y="-308.1" font-family="Times,serif" font-size="8.00">STARTING</text>
</g>
<!-- STAGING&#45;&gt;STARTING -->
<g id="edge6" class="edge"><title>STAGING&#45;&gt;STARTING</title>
<path fill="none" stroke="black" d="M266.832,-355.313C278.938,-348.144 293.348,-339.61 306.328,-331.922"/>
<polygon fill="black" stroke="black" points="308.22,-334.87 315.041,-326.762 304.653,-328.847 308.22,-334.87"/>
</g>
<!-- STAGING&#45;&gt;DROPPED -->
<g id="edge7" class="edge"><title>STAGING&#45;&gt;DROPPED</title>
<path fill="none" stroke="black" d="M271.091,-371.5C305.831,-371.5 361.97,-371.5 401.574,-371.5"/>
<polygon fill="black" stroke="black" points="401.768,-375 411.768,-371.5 401.768,-368 401.768,-375"/>
</g>
<!-- STARTING&#45;&gt;RUNNING -->
<g id="edge8" class="edge"><title>STARTING&#45;&gt;RUNNING</title>
<path fill="none" stroke="black" d="M365.592,-286.336C381.214,-268.439 402.652,-243.879 419.677,-224.375"/>
<polygon fill="black" stroke="black" points="422.497,-226.467 426.436,-216.631 417.223,-221.864 422.497,-226.467"/>
</g>
<!-- STARTING&#45;&gt;DROPPED -->
<g id="edge9" class="edge"><title>STARTING&#45;&gt;DROPPED</title>
<path fill="none" stroke="black" d="M371.832,-326.687C382.958,-333.276 396.031,-341.018 408.151,-348.196"/>
<polygon fill="black" stroke="black" points="406.379,-351.214 416.767,-353.299 409.946,-345.191 406.379,-351.214"/>
</g>
<!-- KILLING -->
<g id="node6" class="node"><title>KILLING</title>
<ellipse fill="none" stroke="black" cx="557.5" cy="-336.5" rx="32.5" ry="32.5"/>
<text text-anchor="middle" x="557.5" y="-334.1" font-family="Times,serif" font-size="8.00">KILLING</text>
</g>
<!-- RUNNING&#45;&gt;KILLING -->
<g id="edge14" class="edge"><title>RUNNING&#45;&gt;KILLING</title>
<path fill="none" stroke="black" d="M469.347,-218.127C474.535,-225 480.057,-232.475 485,-239.5 501.814,-263.392 503.538,-271.078 521,-294.5 523.504,-297.858 526.192,-301.299 528.928,-304.696"/>
<polygon fill="black" stroke="black" points="526.278,-306.983 535.334,-312.48 531.683,-302.535 526.278,-306.983"/>
</g>
<!-- GONE BY\nOPERATOR -->
<g id="node8" class="node"><title>GONE BY\nOPERATOR</title>
<ellipse fill="none" stroke="black" cx="557.5" cy="-253.5" rx="32.5" ry="32.5"/>
<text text-anchor="middle" x="557.5" y="-255.1" font-family="Times,serif" font-size="8.00">GONE BY</text>
<text text-anchor="middle" x="557.5" y="-247.1" font-family="Times,serif" font-size="8.00">OPERATOR</text>
</g>
<!-- RUNNING&#45;&gt;GONE BY\nOPERATOR -->
<g id="edge11" class="edge"><title>RUNNING&#45;&gt;GONE BY\nOPERATOR</title>
<path fill="none" stroke="black" d="M485.942,-213.276C496.86,-219.499 508.835,-226.327 519.771,-232.561"/>
<polygon fill="black" stroke="black" points="487.476,-210.121 477.055,-208.209 484.009,-216.202 487.476,-210.121"/>
<polygon fill="black" stroke="black" points="518.245,-235.72 528.666,-237.632 521.712,-229.639 518.245,-235.72"/>
</g>
<!-- GONE -->
<g id="node10" class="node"><title>GONE</title>
<ellipse fill="none" stroke="black" cx="557.5" cy="-127.5" rx="32.5" ry="32.5"/>
<ellipse fill="none" stroke="black" cx="557.5" cy="-127.5" rx="36.5" ry="36.5"/>
<text text-anchor="middle" x="557.5" y="-125.1" font-family="Times,serif" font-size="8.00">GONE</text>
</g>
<!-- RUNNING&#45;&gt;GONE -->
<g id="edge10" class="edge"><title>RUNNING&#45;&gt;GONE</title>
<path fill="none" stroke="black" d="M476.777,-175.93C489.069,-168.463 503.814,-159.506 517.262,-151.336"/>
<polygon fill="black" stroke="black" points="519.143,-154.289 525.873,-146.105 515.509,-148.306 519.143,-154.289"/>
</g>
<!-- FINISHED -->
<g id="node11" class="node"><title>FINISHED</title>
<ellipse fill="none" stroke="black" cx="557.5" cy="-36.5" rx="32.5" ry="32.5"/>
<ellipse fill="none" stroke="black" cx="557.5" cy="-36.5" rx="36.5" ry="36.5"/>
<text text-anchor="middle" x="557.5" y="-34.1" font-family="Times,serif" font-size="8.00">FINISHED</text>
</g>
<!-- RUNNING&#45;&gt;FINISHED -->
<g id="edge13" class="edge"><title>RUNNING&#45;&gt;FINISHED</title>
<path fill="none" stroke="black" d="M466.129,-165.103C480.187,-142.338 501.152,-109.296 521,-81.5 523.027,-78.6605 525.166,-75.7547 527.346,-72.854"/>
<polygon fill="black" stroke="black" points="530.248,-74.8206 533.545,-64.752 524.689,-70.5667 530.248,-74.8206"/>
</g>
<!-- FAILED -->
<g id="node12" class="node"><title>FAILED</title>
<ellipse fill="none" stroke="black" cx="557.5" cy="-530.5" rx="32.5" ry="32.5"/>
<ellipse fill="none" stroke="black" cx="557.5" cy="-530.5" rx="36.5" ry="36.5"/>
<text text-anchor="middle" x="557.5" y="-528.1" font-family="Times,serif" font-size="8.00">FAILED</text>
</g>
<!-- RUNNING&#45;&gt;FAILED -->
<g id="edge12" class="edge"><title>RUNNING&#45;&gt;FAILED</title>
<path fill="none" stroke="black" d="M459.279,-223.391C478.309,-283.503 520.379,-416.397 542.414,-486.006"/>
<polygon fill="black" stroke="black" points="539.16,-487.323 545.515,-495.8 545.834,-485.21 539.16,-487.323"/>
</g>
<!-- KILLED -->
<g id="node13" class="node"><title>KILLED</title>
<ellipse fill="none" stroke="black" cx="666.5" cy="-264.5" rx="32.5" ry="32.5"/>
<ellipse fill="none" stroke="black" cx="666.5" cy="-264.5" rx="36.5" ry="36.5"/>
<text text-anchor="middle" x="666.5" y="-262.1" font-family="Times,serif" font-size="8.00">KILLED</text>
</g>
<!-- RUNNING&#45;&gt;KILLED -->
<g id="edge15" class="edge"><title>RUNNING&#45;&gt;KILLED</title>
<path fill="none" stroke="black" d="M481.094,-192.145C511.168,-192.834 557.172,-196.606 594,-211.5 607.127,-216.809 620.018,-225.108 631.16,-233.577"/>
<polygon fill="black" stroke="black" points="629.303,-236.572 639.314,-240.04 633.651,-231.086 629.303,-236.572"/>
</g>
<!-- KILLING&#45;&gt;KILLED -->
<g id="edge16" class="edge"><title>KILLING&#45;&gt;KILLED</title>
<path fill="none" stroke="black" d="M584.949,-318.702C597.659,-310.15 613.133,-299.737 627.109,-290.333"/>
<polygon fill="black" stroke="black" points="629.236,-293.12 635.579,-284.634 625.328,-287.313 629.236,-293.12"/>
</g>
<!-- UNREACHABLE -->
<g id="node7" class="node"><title>UNREACHABLE</title>
<ellipse fill="none" stroke="black" cx="32.5" cy="-279.5" rx="32.5" ry="32.5"/>
<text text-anchor="middle" x="32.5" y="-277.1" font-family="Times,serif" font-size="8.00">UNREACHABLE</text>
</g>
<!-- UNREACHABLE&#45;&gt;STAGING -->
<g id="edge22" class="edge"><title>UNREACHABLE&#45;&gt;STAGING</title>
<path fill="none" stroke="black" d="M67.2922,-304.483C77.763,-311.543 89.5619,-318.836 101,-324.5 132.006,-339.854 169.264,-352.316 197.016,-360.54"/>
<polygon fill="black" stroke="black" points="69.0635,-301.453 58.8462,-298.65 65.0852,-307.213 69.0635,-301.453"/>
<polygon fill="black" stroke="black" points="196.202,-363.948 206.781,-363.376 198.154,-357.226 196.202,-363.948"/>
</g>
<!-- UNREACHABLE&#45;&gt;STARTING -->
<g id="edge21" class="edge"><title>UNREACHABLE&#45;&gt;STARTING</title>
<path fill="none" stroke="black" d="M74.6216,-286.732C83.3139,-288.111 92.4449,-289.45 101,-290.5 170.831,-299.068 252.483,-304.976 300.713,-308.044"/>
<polygon fill="black" stroke="black" points="75.1133,-283.266 64.6799,-285.108 73.9851,-290.174 75.1133,-283.266"/>
<polygon fill="black" stroke="black" points="300.573,-311.542 310.772,-308.673 301.01,-304.556 300.573,-311.542"/>
</g>
<!-- UNREACHABLE&#45;&gt;RUNNING -->
<g id="edge20" class="edge"><title>UNREACHABLE&#45;&gt;RUNNING</title>
<path fill="none" stroke="black" d="M57.371,-244.348C68.8318,-230.394 83.8207,-215.732 101,-207.5 201.767,-159.216 338.518,-173.051 406.135,-184.318"/>
<polygon fill="black" stroke="black" points="54.4527,-242.398 51.0409,-252.428 59.9631,-246.715 54.4527,-242.398"/>
<polygon fill="black" stroke="black" points="405.926,-187.834 416.377,-186.094 407.122,-180.937 405.926,-187.834"/>
</g>
<!-- UNREACHABLE&#45;&gt;KILLING -->
<g id="edge23" class="edge"><title>UNREACHABLE&#45;&gt;KILLING</title>
<path fill="none" stroke="black" d="M40.107,-321.844C56.3707,-409.032 106.948,-600.5 237.5,-600.5 237.5,-600.5 237.5,-600.5 344.5,-600.5 457.485,-600.5 520.318,-451.676 544.616,-377.507"/>
<polygon fill="black" stroke="black" points="43.5061,-320.971 38.2907,-311.748 36.6167,-322.21 43.5061,-320.971"/>
<polygon fill="black" stroke="black" points="548.084,-378.151 547.79,-367.56 541.416,-376.023 548.084,-378.151"/>
</g>
<!-- UNKNOWN -->
<g id="node9" class="node"><title>UNKNOWN</title>
<ellipse fill="none" stroke="black" cx="133.5" cy="-249.5" rx="32.5" ry="32.5"/>
<text text-anchor="middle" x="133.5" y="-247.1" font-family="Times,serif" font-size="8.00">UNKNOWN</text>
</g>
<!-- UNREACHABLE&#45;&gt;UNKNOWN -->
<g id="edge24" class="edge"><title>UNREACHABLE&#45;&gt;UNKNOWN</title>
<path fill="none" stroke="black" d="M63.7412,-270.336C72.7727,-267.599 82.8176,-264.555 92.378,-261.658"/>
<polygon fill="black" stroke="black" points="93.5477,-264.961 102.103,-258.711 91.5176,-258.262 93.5477,-264.961"/>
</g>
<!-- UNREACHABLE&#45;&gt;GONE -->
<g id="edge17" class="edge"><title>UNREACHABLE&#45;&gt;GONE</title>
<path fill="none" stroke="black" d="M48.1688,-250.463C60.0386,-229.345 78.4589,-201.279 101,-182.5 152.194,-139.851 170.869,-120.5 237.5,-120.5 237.5,-120.5 237.5,-120.5 344.5,-120.5 401.825,-120.5 467.821,-123.088 510.747,-125.117"/>
<polygon fill="black" stroke="black" points="510.72,-128.62 520.877,-125.606 511.057,-121.628 510.72,-128.62"/>
</g>
<!-- UNREACHABLE&#45;&gt;FINISHED -->
<g id="edge19" class="edge"><title>UNREACHABLE&#45;&gt;FINISHED</title>
<path fill="none" stroke="black" d="M41.1494,-248.101C50.507,-215.324 69.1683,-164.108 101,-130.5 148.024,-80.8519 169.117,-59.5 237.5,-59.5 237.5,-59.5 237.5,-59.5 344.5,-59.5 402.301,-59.5 468.451,-50.9453 511.268,-44.2705"/>
<polygon fill="black" stroke="black" points="512.04,-47.6918 521.366,-42.6636 510.94,-40.7787 512.04,-47.6918"/>
</g>
<!-- UNREACHABLE&#45;&gt;FAILED -->
<g id="edge18" class="edge"><title>UNREACHABLE&#45;&gt;FAILED</title>
<path fill="none" stroke="black" d="M40.6253,-311.15C56.4684,-381.117 93.7891,-543.562 101,-553.5 142.971,-611.345 166.032,-638.5 237.5,-638.5 237.5,-638.5 237.5,-638.5 344.5,-638.5 413.286,-638.5 482.289,-592.8 522.12,-560.856"/>
<polygon fill="black" stroke="black" points="524.404,-563.51 529.927,-554.469 519.971,-558.092 524.404,-563.51"/>
</g>
<!-- UNKNOWN&#45;&gt;STAGING -->
<g id="edge27" class="edge"><title>UNKNOWN&#45;&gt;STAGING</title>
<path fill="none" stroke="black" d="M155.096,-273.895C170.955,-292.68 193.019,-318.814 210.325,-339.312"/>
<polygon fill="black" stroke="black" points="207.814,-341.764 216.94,-347.147 213.163,-337.248 207.814,-341.764"/>
</g>
<!-- UNKNOWN&#45;&gt;STARTING -->
<g id="edge26" class="edge"><title>UNKNOWN&#45;&gt;STARTING</title>
<path fill="none" stroke="black" d="M165.191,-258.501C201.549,-269.163 262.227,-286.958 302.304,-298.712"/>
<polygon fill="black" stroke="black" points="301.441,-302.106 312.022,-301.562 303.411,-295.389 301.441,-302.106"/>
</g>
<!-- UNKNOWN&#45;&gt;RUNNING -->
<g id="edge25" class="edge"><title>UNKNOWN&#45;&gt;RUNNING</title>
<path fill="none" stroke="black" d="M162.747,-235.176C174.593,-229.751 188.687,-224.037 202,-220.5 271.912,-201.926 356.241,-195.673 405.66,-193.568"/>
<polygon fill="black" stroke="black" points="406.098,-197.053 415.955,-193.168 405.827,-190.059 406.098,-197.053"/>
</g>
<!-- UNKNOWN&#45;&gt;KILLING -->
<g id="edge28" class="edge"><title>UNKNOWN&#45;&gt;KILLING</title>
<path fill="none" stroke="black" d="M166.18,-249.173C212.736,-249.324 302.113,-252.024 376,-268.5 427.005,-279.874 482.899,-302.649 518.769,-318.7"/>
<polygon fill="black" stroke="black" points="517.334,-321.892 527.887,-322.829 520.221,-315.515 517.334,-321.892"/>
</g>
</g>
</svg>
